<?xml version="1.0" encoding="utf-8" standalone="no"?>
<!DOCTYPE svg PUBLIC "-//W3C//DTD SVG 1.1//EN"
  "http://www.w3.org/Graphics/SVG/1.1/DTD/svg11.dtd">
<svg height="288pt" version="1.1" viewBox="0 0 1296 288" width="1296pt" xmlns="http://www.w3.org/2000/svg" xmlns:xlink="http://www.w3.org/1999/xlink">
 <metadata>
  <rdf:RDF xmlns:cc="http://creativecommons.org/ns#" xmlns:dc="http://purl.org/dc/elements/1.1/" xmlns:rdf="http://www.w3.org/1999/02/22-rdf-syntax-ns#">
   <cc:Work>
    <dc:type rdf:resource="http://purl.org/dc/dcmitype/StillImage"/>
    <dc:date>2022-06-19T20:49:11.305264</dc:date>
    <dc:format>image/svg+xml</dc:format>
    <dc:creator>
     <cc:Agent>
      <dc:title>Matplotlib v3.4.3, https://matplotlib.org/</dc:title>
     </cc:Agent>
    </dc:creator>
   </cc:Work>
  </rdf:RDF>
 </metadata>
 <defs>
  <style type="text/css">*{stroke-linecap:butt;stroke-linejoin:round;}</style>
 </defs>
 <g id="figure_1">
  <g id="patch_1">
   <path d="M 0 288 
L 1296 288 
L 1296 0 
L 0 0 
z
" style="fill:none;"/>
  </g>
  <g id="axes_1">
   <g id="patch_2">
    <path d="M 162 252 
L 1166.4 252 
L 1166.4 34.56 
L 162 34.56 
z
" style="fill:#ffffff;"/>
   </g>
   <g id="matplotlib.axis_1">
    <g id="xtick_1">
     <g id="line2d_1">
      <defs>
       <path d="M 0 0 
L 0 3.5 
" id="m61c9542ca9" style="stroke:#000000;stroke-width:0.8;"/>
      </defs>
      <g>
       <use style="stroke:#000000;stroke-width:0.8;" x="226.100826" xlink:href="#m61c9542ca9" y="252"/>
      </g>
     </g>
     <g id="text_1">
      <!-- Computer vision -->
      <g transform="translate(228.860201 341.03125)rotate(-90)scale(0.1 -0.1)">
       <defs>
        <path d="M 4122 4306 
L 4122 3641 
Q 3803 3938 3442 4084 
Q 3081 4231 2675 4231 
Q 1875 4231 1450 3742 
Q 1025 3253 1025 2328 
Q 1025 1406 1450 917 
Q 1875 428 2675 428 
Q 3081 428 3442 575 
Q 3803 722 4122 1019 
L 4122 359 
Q 3791 134 3420 21 
Q 3050 -91 2638 -91 
Q 1578 -91 968 557 
Q 359 1206 359 2328 
Q 359 3453 968 4101 
Q 1578 4750 2638 4750 
Q 3056 4750 3426 4639 
Q 3797 4528 4122 4306 
z
" id="DejaVuSans-43" transform="scale(0.015625)"/>
        <path d="M 1959 3097 
Q 1497 3097 1228 2736 
Q 959 2375 959 1747 
Q 959 1119 1226 758 
Q 1494 397 1959 397 
Q 2419 397 2687 759 
Q 2956 1122 2956 1747 
Q 2956 2369 2687 2733 
Q 2419 3097 1959 3097 
z
M 1959 3584 
Q 2709 3584 3137 3096 
Q 3566 2609 3566 1747 
Q 3566 888 3137 398 
Q 2709 -91 1959 -91 
Q 1206 -91 779 398 
Q 353 888 353 1747 
Q 353 2609 779 3096 
Q 1206 3584 1959 3584 
z
" id="DejaVuSans-6f" transform="scale(0.015625)"/>
        <path d="M 3328 2828 
Q 3544 3216 3844 3400 
Q 4144 3584 4550 3584 
Q 5097 3584 5394 3201 
Q 5691 2819 5691 2113 
L 5691 0 
L 5113 0 
L 5113 2094 
Q 5113 2597 4934 2840 
Q 4756 3084 4391 3084 
Q 3944 3084 3684 2787 
Q 3425 2491 3425 1978 
L 3425 0 
L 2847 0 
L 2847 2094 
Q 2847 2600 2669 2842 
Q 2491 3084 2119 3084 
Q 1678 3084 1418 2786 
Q 1159 2488 1159 1978 
L 1159 0 
L 581 0 
L 581 3500 
L 1159 3500 
L 1159 2956 
Q 1356 3278 1631 3431 
Q 1906 3584 2284 3584 
Q 2666 3584 2933 3390 
Q 3200 3197 3328 2828 
z
" id="DejaVuSans-6d" transform="scale(0.015625)"/>
        <path d="M 1159 525 
L 1159 -1331 
L 581 -1331 
L 581 3500 
L 1159 3500 
L 1159 2969 
Q 1341 3281 1617 3432 
Q 1894 3584 2278 3584 
Q 2916 3584 3314 3078 
Q 3713 2572 3713 1747 
Q 3713 922 3314 415 
Q 2916 -91 2278 -91 
Q 1894 -91 1617 61 
Q 1341 213 1159 525 
z
M 3116 1747 
Q 3116 2381 2855 2742 
Q 2594 3103 2138 3103 
Q 1681 3103 1420 2742 
Q 1159 2381 1159 1747 
Q 1159 1113 1420 752 
Q 1681 391 2138 391 
Q 2594 391 2855 752 
Q 3116 1113 3116 1747 
z
" id="DejaVuSans-70" transform="scale(0.015625)"/>
        <path d="M 544 1381 
L 544 3500 
L 1119 3500 
L 1119 1403 
Q 1119 906 1312 657 
Q 1506 409 1894 409 
Q 2359 409 2629 706 
Q 2900 1003 2900 1516 
L 2900 3500 
L 3475 3500 
L 3475 0 
L 2900 0 
L 2900 538 
Q 2691 219 2414 64 
Q 2138 -91 1772 -91 
Q 1169 -91 856 284 
Q 544 659 544 1381 
z
M 1991 3584 
L 1991 3584 
z
" id="DejaVuSans-75" transform="scale(0.015625)"/>
        <path d="M 1172 4494 
L 1172 3500 
L 2356 3500 
L 2356 3053 
L 1172 3053 
L 1172 1153 
Q 1172 725 1289 603 
Q 1406 481 1766 481 
L 2356 481 
L 2356 0 
L 1766 0 
Q 1100 0 847 248 
Q 594 497 594 1153 
L 594 3053 
L 172 3053 
L 172 3500 
L 594 3500 
L 594 4494 
L 1172 4494 
z
" id="DejaVuSans-74" transform="scale(0.015625)"/>
        <path d="M 3597 1894 
L 3597 1613 
L 953 1613 
Q 991 1019 1311 708 
Q 1631 397 2203 397 
Q 2534 397 2845 478 
Q 3156 559 3463 722 
L 3463 178 
Q 3153 47 2828 -22 
Q 2503 -91 2169 -91 
Q 1331 -91 842 396 
Q 353 884 353 1716 
Q 353 2575 817 3079 
Q 1281 3584 2069 3584 
Q 2775 3584 3186 3129 
Q 3597 2675 3597 1894 
z
M 3022 2063 
Q 3016 2534 2758 2815 
Q 2500 3097 2075 3097 
Q 1594 3097 1305 2825 
Q 1016 2553 972 2059 
L 3022 2063 
z
" id="DejaVuSans-65" transform="scale(0.015625)"/>
        <path d="M 2631 2963 
Q 2534 3019 2420 3045 
Q 2306 3072 2169 3072 
Q 1681 3072 1420 2755 
Q 1159 2438 1159 1844 
L 1159 0 
L 581 0 
L 581 3500 
L 1159 3500 
L 1159 2956 
Q 1341 3275 1631 3429 
Q 1922 3584 2338 3584 
Q 2397 3584 2469 3576 
Q 2541 3569 2628 3553 
L 2631 2963 
z
" id="DejaVuSans-72" transform="scale(0.015625)"/>
        <path id="DejaVuSans-20" transform="scale(0.015625)"/>
        <path d="M 191 3500 
L 800 3500 
L 1894 563 
L 2988 3500 
L 3597 3500 
L 2284 0 
L 1503 0 
L 191 3500 
z
" id="DejaVuSans-76" transform="scale(0.015625)"/>
        <path d="M 603 3500 
L 1178 3500 
L 1178 0 
L 603 0 
L 603 3500 
z
M 603 4863 
L 1178 4863 
L 1178 4134 
L 603 4134 
L 603 4863 
z
" id="DejaVuSans-69" transform="scale(0.015625)"/>
        <path d="M 2834 3397 
L 2834 2853 
Q 2591 2978 2328 3040 
Q 2066 3103 1784 3103 
Q 1356 3103 1142 2972 
Q 928 2841 928 2578 
Q 928 2378 1081 2264 
Q 1234 2150 1697 2047 
L 1894 2003 
Q 2506 1872 2764 1633 
Q 3022 1394 3022 966 
Q 3022 478 2636 193 
Q 2250 -91 1575 -91 
Q 1294 -91 989 -36 
Q 684 19 347 128 
L 347 722 
Q 666 556 975 473 
Q 1284 391 1588 391 
Q 1994 391 2212 530 
Q 2431 669 2431 922 
Q 2431 1156 2273 1281 
Q 2116 1406 1581 1522 
L 1381 1569 
Q 847 1681 609 1914 
Q 372 2147 372 2553 
Q 372 3047 722 3315 
Q 1072 3584 1716 3584 
Q 2034 3584 2315 3537 
Q 2597 3491 2834 3397 
z
" id="DejaVuSans-73" transform="scale(0.015625)"/>
        <path d="M 3513 2113 
L 3513 0 
L 2938 0 
L 2938 2094 
Q 2938 2591 2744 2837 
Q 2550 3084 2163 3084 
Q 1697 3084 1428 2787 
Q 1159 2491 1159 1978 
L 1159 0 
L 581 0 
L 581 3500 
L 1159 3500 
L 1159 2956 
Q 1366 3272 1645 3428 
Q 1925 3584 2291 3584 
Q 2894 3584 3203 3211 
Q 3513 2838 3513 2113 
z
" id="DejaVuSans-6e" transform="scale(0.015625)"/>
       </defs>
       <use xlink:href="#DejaVuSans-43"/>
       <use x="69.824219" xlink:href="#DejaVuSans-6f"/>
       <use x="131.005859" xlink:href="#DejaVuSans-6d"/>
       <use x="228.417969" xlink:href="#DejaVuSans-70"/>
       <use x="291.894531" xlink:href="#DejaVuSans-75"/>
       <use x="355.273438" xlink:href="#DejaVuSans-74"/>
       <use x="394.482422" xlink:href="#DejaVuSans-65"/>
       <use x="456.005859" xlink:href="#DejaVuSans-72"/>
       <use x="497.119141" xlink:href="#DejaVuSans-20"/>
       <use x="528.90625" xlink:href="#DejaVuSans-76"/>
       <use x="588.085938" xlink:href="#DejaVuSans-69"/>
       <use x="615.869141" xlink:href="#DejaVuSans-73"/>
       <use x="667.96875" xlink:href="#DejaVuSans-69"/>
       <use x="695.751953" xlink:href="#DejaVuSans-6f"/>
       <use x="756.933594" xlink:href="#DejaVuSans-6e"/>
      </g>
     </g>
    </g>
    <g id="xtick_2">
     <g id="line2d_2">
      <g>
       <use style="stroke:#000000;stroke-width:0.8;" x="272.216529" xlink:href="#m61c9542ca9" y="252"/>
      </g>
     </g>
     <g id="text_2">
      <!-- Consulting -->
      <g transform="translate(274.975904 312.148438)rotate(-90)scale(0.1 -0.1)">
       <defs>
        <path d="M 603 4863 
L 1178 4863 
L 1178 0 
L 603 0 
L 603 4863 
z
" id="DejaVuSans-6c" transform="scale(0.015625)"/>
        <path d="M 2906 1791 
Q 2906 2416 2648 2759 
Q 2391 3103 1925 3103 
Q 1463 3103 1205 2759 
Q 947 2416 947 1791 
Q 947 1169 1205 825 
Q 1463 481 1925 481 
Q 2391 481 2648 825 
Q 2906 1169 2906 1791 
z
M 3481 434 
Q 3481 -459 3084 -895 
Q 2688 -1331 1869 -1331 
Q 1566 -1331 1297 -1286 
Q 1028 -1241 775 -1147 
L 775 -588 
Q 1028 -725 1275 -790 
Q 1522 -856 1778 -856 
Q 2344 -856 2625 -561 
Q 2906 -266 2906 331 
L 2906 616 
Q 2728 306 2450 153 
Q 2172 0 1784 0 
Q 1141 0 747 490 
Q 353 981 353 1791 
Q 353 2603 747 3093 
Q 1141 3584 1784 3584 
Q 2172 3584 2450 3431 
Q 2728 3278 2906 2969 
L 2906 3500 
L 3481 3500 
L 3481 434 
z
" id="DejaVuSans-67" transform="scale(0.015625)"/>
       </defs>
       <use xlink:href="#DejaVuSans-43"/>
       <use x="69.824219" xlink:href="#DejaVuSans-6f"/>
       <use x="131.005859" xlink:href="#DejaVuSans-6e"/>
       <use x="194.384766" xlink:href="#DejaVuSans-73"/>
       <use x="246.484375" xlink:href="#DejaVuSans-75"/>
       <use x="309.863281" xlink:href="#DejaVuSans-6c"/>
       <use x="337.646484" xlink:href="#DejaVuSans-74"/>
       <use x="376.855469" xlink:href="#DejaVuSans-69"/>
       <use x="404.638672" xlink:href="#DejaVuSans-6e"/>
       <use x="468.017578" xlink:href="#DejaVuSans-67"/>
      </g>
     </g>
    </g>
    <g id="xtick_3">
     <g id="line2d_3">
      <g>
       <use style="stroke:#000000;stroke-width:0.8;" x="318.332231" xlink:href="#m61c9542ca9" y="252"/>
      </g>
     </g>
     <g id="text_3">
      <!-- Fintech -->
      <g transform="translate(321.091606 295.051562)rotate(-90)scale(0.1 -0.1)">
       <defs>
        <path d="M 628 4666 
L 3309 4666 
L 3309 4134 
L 1259 4134 
L 1259 2759 
L 3109 2759 
L 3109 2228 
L 1259 2228 
L 1259 0 
L 628 0 
L 628 4666 
z
" id="DejaVuSans-46" transform="scale(0.015625)"/>
        <path d="M 3122 3366 
L 3122 2828 
Q 2878 2963 2633 3030 
Q 2388 3097 2138 3097 
Q 1578 3097 1268 2742 
Q 959 2388 959 1747 
Q 959 1106 1268 751 
Q 1578 397 2138 397 
Q 2388 397 2633 464 
Q 2878 531 3122 666 
L 3122 134 
Q 2881 22 2623 -34 
Q 2366 -91 2075 -91 
Q 1284 -91 818 406 
Q 353 903 353 1747 
Q 353 2603 823 3093 
Q 1294 3584 2113 3584 
Q 2378 3584 2631 3529 
Q 2884 3475 3122 3366 
z
" id="DejaVuSans-63" transform="scale(0.015625)"/>
        <path d="M 3513 2113 
L 3513 0 
L 2938 0 
L 2938 2094 
Q 2938 2591 2744 2837 
Q 2550 3084 2163 3084 
Q 1697 3084 1428 2787 
Q 1159 2491 1159 1978 
L 1159 0 
L 581 0 
L 581 4863 
L 1159 4863 
L 1159 2956 
Q 1366 3272 1645 3428 
Q 1925 3584 2291 3584 
Q 2894 3584 3203 3211 
Q 3513 2838 3513 2113 
z
" id="DejaVuSans-68" transform="scale(0.015625)"/>
       </defs>
       <use xlink:href="#DejaVuSans-46"/>
       <use x="50.269531" xlink:href="#DejaVuSans-69"/>
       <use x="78.052734" xlink:href="#DejaVuSans-6e"/>
       <use x="141.431641" xlink:href="#DejaVuSans-74"/>
       <use x="180.640625" xlink:href="#DejaVuSans-65"/>
       <use x="242.164062" xlink:href="#DejaVuSans-63"/>
       <use x="297.144531" xlink:href="#DejaVuSans-68"/>
      </g>
     </g>
    </g>
    <g id="xtick_4">
     <g id="line2d_4">
      <g>
       <use style="stroke:#000000;stroke-width:0.8;" x="364.447934" xlink:href="#m61c9542ca9" y="252"/>
      </g>
     </g>
     <g id="text_4">
      <!-- Fish processing equipment -->
      <g transform="translate(367.207309 392.7125)rotate(-90)scale(0.1 -0.1)">
       <defs>
        <path d="M 947 1747 
Q 947 1113 1208 752 
Q 1469 391 1925 391 
Q 2381 391 2643 752 
Q 2906 1113 2906 1747 
Q 2906 2381 2643 2742 
Q 2381 3103 1925 3103 
Q 1469 3103 1208 2742 
Q 947 2381 947 1747 
z
M 2906 525 
Q 2725 213 2448 61 
Q 2172 -91 1784 -91 
Q 1150 -91 751 415 
Q 353 922 353 1747 
Q 353 2572 751 3078 
Q 1150 3584 1784 3584 
Q 2172 3584 2448 3432 
Q 2725 3281 2906 2969 
L 2906 3500 
L 3481 3500 
L 3481 -1331 
L 2906 -1331 
L 2906 525 
z
" id="DejaVuSans-71" transform="scale(0.015625)"/>
       </defs>
       <use xlink:href="#DejaVuSans-46"/>
       <use x="50.269531" xlink:href="#DejaVuSans-69"/>
       <use x="78.052734" xlink:href="#DejaVuSans-73"/>
       <use x="130.152344" xlink:href="#DejaVuSans-68"/>
       <use x="193.53125" xlink:href="#DejaVuSans-20"/>
       <use x="225.318359" xlink:href="#DejaVuSans-70"/>
       <use x="288.794922" xlink:href="#DejaVuSans-72"/>
       <use x="327.658203" xlink:href="#DejaVuSans-6f"/>
       <use x="388.839844" xlink:href="#DejaVuSans-63"/>
       <use x="443.820312" xlink:href="#DejaVuSans-65"/>
       <use x="505.34375" xlink:href="#DejaVuSans-73"/>
       <use x="557.443359" xlink:href="#DejaVuSans-73"/>
       <use x="609.542969" xlink:href="#DejaVuSans-69"/>
       <use x="637.326172" xlink:href="#DejaVuSans-6e"/>
       <use x="700.705078" xlink:href="#DejaVuSans-67"/>
       <use x="764.181641" xlink:href="#DejaVuSans-20"/>
       <use x="795.96875" xlink:href="#DejaVuSans-65"/>
       <use x="857.492188" xlink:href="#DejaVuSans-71"/>
       <use x="920.96875" xlink:href="#DejaVuSans-75"/>
       <use x="984.347656" xlink:href="#DejaVuSans-69"/>
       <use x="1012.130859" xlink:href="#DejaVuSans-70"/>
       <use x="1075.607422" xlink:href="#DejaVuSans-6d"/>
       <use x="1173.019531" xlink:href="#DejaVuSans-65"/>
       <use x="1234.542969" xlink:href="#DejaVuSans-6e"/>
       <use x="1297.921875" xlink:href="#DejaVuSans-74"/>
      </g>
     </g>
    </g>
    <g id="xtick_5">
     <g id="line2d_5">
      <g>
       <use style="stroke:#000000;stroke-width:0.8;" x="410.563636" xlink:href="#m61c9542ca9" y="252"/>
      </g>
     </g>
     <g id="text_5">
      <!-- Healthcare -->
      <g transform="translate(413.323011 313.503125)rotate(-90)scale(0.1 -0.1)">
       <defs>
        <path d="M 628 4666 
L 1259 4666 
L 1259 2753 
L 3553 2753 
L 3553 4666 
L 4184 4666 
L 4184 0 
L 3553 0 
L 3553 2222 
L 1259 2222 
L 1259 0 
L 628 0 
L 628 4666 
z
" id="DejaVuSans-48" transform="scale(0.015625)"/>
        <path d="M 2194 1759 
Q 1497 1759 1228 1600 
Q 959 1441 959 1056 
Q 959 750 1161 570 
Q 1363 391 1709 391 
Q 2188 391 2477 730 
Q 2766 1069 2766 1631 
L 2766 1759 
L 2194 1759 
z
M 3341 1997 
L 3341 0 
L 2766 0 
L 2766 531 
Q 2569 213 2275 61 
Q 1981 -91 1556 -91 
Q 1019 -91 701 211 
Q 384 513 384 1019 
Q 384 1609 779 1909 
Q 1175 2209 1959 2209 
L 2766 2209 
L 2766 2266 
Q 2766 2663 2505 2880 
Q 2244 3097 1772 3097 
Q 1472 3097 1187 3025 
Q 903 2953 641 2809 
L 641 3341 
Q 956 3463 1253 3523 
Q 1550 3584 1831 3584 
Q 2591 3584 2966 3190 
Q 3341 2797 3341 1997 
z
" id="DejaVuSans-61" transform="scale(0.015625)"/>
       </defs>
       <use xlink:href="#DejaVuSans-48"/>
       <use x="75.195312" xlink:href="#DejaVuSans-65"/>
       <use x="136.71875" xlink:href="#DejaVuSans-61"/>
       <use x="197.998047" xlink:href="#DejaVuSans-6c"/>
       <use x="225.78125" xlink:href="#DejaVuSans-74"/>
       <use x="264.990234" xlink:href="#DejaVuSans-68"/>
       <use x="328.369141" xlink:href="#DejaVuSans-63"/>
       <use x="383.349609" xlink:href="#DejaVuSans-61"/>
       <use x="444.628906" xlink:href="#DejaVuSans-72"/>
       <use x="483.492188" xlink:href="#DejaVuSans-65"/>
      </g>
     </g>
    </g>
    <g id="xtick_6">
     <g id="line2d_6">
      <g>
       <use style="stroke:#000000;stroke-width:0.8;" x="456.679339" xlink:href="#m61c9542ca9" y="252"/>
      </g>
     </g>
     <g id="text_6">
      <!-- House builders -->
      <g transform="translate(459.438714 333.58125)rotate(-90)scale(0.1 -0.1)">
       <defs>
        <path d="M 3116 1747 
Q 3116 2381 2855 2742 
Q 2594 3103 2138 3103 
Q 1681 3103 1420 2742 
Q 1159 2381 1159 1747 
Q 1159 1113 1420 752 
Q 1681 391 2138 391 
Q 2594 391 2855 752 
Q 3116 1113 3116 1747 
z
M 1159 2969 
Q 1341 3281 1617 3432 
Q 1894 3584 2278 3584 
Q 2916 3584 3314 3078 
Q 3713 2572 3713 1747 
Q 3713 922 3314 415 
Q 2916 -91 2278 -91 
Q 1894 -91 1617 61 
Q 1341 213 1159 525 
L 1159 0 
L 581 0 
L 581 4863 
L 1159 4863 
L 1159 2969 
z
" id="DejaVuSans-62" transform="scale(0.015625)"/>
        <path d="M 2906 2969 
L 2906 4863 
L 3481 4863 
L 3481 0 
L 2906 0 
L 2906 525 
Q 2725 213 2448 61 
Q 2172 -91 1784 -91 
Q 1150 -91 751 415 
Q 353 922 353 1747 
Q 353 2572 751 3078 
Q 1150 3584 1784 3584 
Q 2172 3584 2448 3432 
Q 2725 3281 2906 2969 
z
M 947 1747 
Q 947 1113 1208 752 
Q 1469 391 1925 391 
Q 2381 391 2643 752 
Q 2906 1113 2906 1747 
Q 2906 2381 2643 2742 
Q 2381 3103 1925 3103 
Q 1469 3103 1208 2742 
Q 947 2381 947 1747 
z
" id="DejaVuSans-64" transform="scale(0.015625)"/>
       </defs>
       <use xlink:href="#DejaVuSans-48"/>
       <use x="75.195312" xlink:href="#DejaVuSans-6f"/>
       <use x="136.376953" xlink:href="#DejaVuSans-75"/>
       <use x="199.755859" xlink:href="#DejaVuSans-73"/>
       <use x="251.855469" xlink:href="#DejaVuSans-65"/>
       <use x="313.378906" xlink:href="#DejaVuSans-20"/>
       <use x="345.166016" xlink:href="#DejaVuSans-62"/>
       <use x="408.642578" xlink:href="#DejaVuSans-75"/>
       <use x="472.021484" xlink:href="#DejaVuSans-69"/>
       <use x="499.804688" xlink:href="#DejaVuSans-6c"/>
       <use x="527.587891" xlink:href="#DejaVuSans-64"/>
       <use x="591.064453" xlink:href="#DejaVuSans-65"/>
       <use x="652.587891" xlink:href="#DejaVuSans-72"/>
       <use x="693.701172" xlink:href="#DejaVuSans-73"/>
      </g>
     </g>
    </g>
    <g id="xtick_7">
     <g id="line2d_7">
      <g>
       <use style="stroke:#000000;stroke-width:0.8;" x="502.795041" xlink:href="#m61c9542ca9" y="252"/>
      </g>
     </g>
     <g id="text_7">
      <!-- Industrial vertical investor -->
      <g transform="translate(505.554416 390.0875)rotate(-90)scale(0.1 -0.1)">
       <defs>
        <path d="M 628 4666 
L 1259 4666 
L 1259 0 
L 628 0 
L 628 4666 
z
" id="DejaVuSans-49" transform="scale(0.015625)"/>
       </defs>
       <use xlink:href="#DejaVuSans-49"/>
       <use x="29.492188" xlink:href="#DejaVuSans-6e"/>
       <use x="92.871094" xlink:href="#DejaVuSans-64"/>
       <use x="156.347656" xlink:href="#DejaVuSans-75"/>
       <use x="219.726562" xlink:href="#DejaVuSans-73"/>
       <use x="271.826172" xlink:href="#DejaVuSans-74"/>
       <use x="311.035156" xlink:href="#DejaVuSans-72"/>
       <use x="352.148438" xlink:href="#DejaVuSans-69"/>
       <use x="379.931641" xlink:href="#DejaVuSans-61"/>
       <use x="441.210938" xlink:href="#DejaVuSans-6c"/>
       <use x="468.994141" xlink:href="#DejaVuSans-20"/>
       <use x="500.78125" xlink:href="#DejaVuSans-76"/>
       <use x="559.960938" xlink:href="#DejaVuSans-65"/>
       <use x="621.484375" xlink:href="#DejaVuSans-72"/>
       <use x="662.597656" xlink:href="#DejaVuSans-74"/>
       <use x="701.806641" xlink:href="#DejaVuSans-69"/>
       <use x="729.589844" xlink:href="#DejaVuSans-63"/>
       <use x="784.570312" xlink:href="#DejaVuSans-61"/>
       <use x="845.849609" xlink:href="#DejaVuSans-6c"/>
       <use x="873.632812" xlink:href="#DejaVuSans-20"/>
       <use x="905.419922" xlink:href="#DejaVuSans-69"/>
       <use x="933.203125" xlink:href="#DejaVuSans-6e"/>
       <use x="996.582031" xlink:href="#DejaVuSans-76"/>
       <use x="1055.761719" xlink:href="#DejaVuSans-65"/>
       <use x="1117.285156" xlink:href="#DejaVuSans-73"/>
       <use x="1169.384766" xlink:href="#DejaVuSans-74"/>
       <use x="1208.59375" xlink:href="#DejaVuSans-6f"/>
       <use x="1269.775391" xlink:href="#DejaVuSans-72"/>
      </g>
     </g>
    </g>
    <g id="xtick_8">
     <g id="line2d_8">
      <g>
       <use style="stroke:#000000;stroke-width:0.8;" x="548.910744" xlink:href="#m61c9542ca9" y="252"/>
      </g>
     </g>
     <g id="text_8">
      <!-- Innovative -->
      <g transform="translate(551.670119 311.560938)rotate(-90)scale(0.1 -0.1)">
       <use xlink:href="#DejaVuSans-49"/>
       <use x="29.492188" xlink:href="#DejaVuSans-6e"/>
       <use x="92.871094" xlink:href="#DejaVuSans-6e"/>
       <use x="156.25" xlink:href="#DejaVuSans-6f"/>
       <use x="217.431641" xlink:href="#DejaVuSans-76"/>
       <use x="276.611328" xlink:href="#DejaVuSans-61"/>
       <use x="337.890625" xlink:href="#DejaVuSans-74"/>
       <use x="377.099609" xlink:href="#DejaVuSans-69"/>
       <use x="404.882812" xlink:href="#DejaVuSans-76"/>
       <use x="464.0625" xlink:href="#DejaVuSans-65"/>
      </g>
     </g>
    </g>
    <g id="xtick_9">
     <g id="line2d_9">
      <g>
       <use style="stroke:#000000;stroke-width:0.8;" x="595.026446" xlink:href="#m61c9542ca9" y="252"/>
      </g>
     </g>
     <g id="text_9">
      <!-- IoT -->
      <g transform="translate(597.785821 274.176562)rotate(-90)scale(0.1 -0.1)">
       <defs>
        <path d="M -19 4666 
L 3928 4666 
L 3928 4134 
L 2272 4134 
L 2272 0 
L 1638 0 
L 1638 4134 
L -19 4134 
L -19 4666 
z
" id="DejaVuSans-54" transform="scale(0.015625)"/>
       </defs>
       <use xlink:href="#DejaVuSans-49"/>
       <use x="29.492188" xlink:href="#DejaVuSans-6f"/>
       <use x="90.673828" xlink:href="#DejaVuSans-54"/>
      </g>
     </g>
    </g>
    <g id="xtick_10">
     <g id="line2d_10">
      <g>
       <use style="stroke:#000000;stroke-width:0.8;" x="641.142149" xlink:href="#m61c9542ca9" y="252"/>
      </g>
     </g>
     <g id="text_10">
      <!-- IT freelance -->
      <g transform="translate(643.901524 317.84375)rotate(-90)scale(0.1 -0.1)">
       <defs>
        <path d="M 2375 4863 
L 2375 4384 
L 1825 4384 
Q 1516 4384 1395 4259 
Q 1275 4134 1275 3809 
L 1275 3500 
L 2222 3500 
L 2222 3053 
L 1275 3053 
L 1275 0 
L 697 0 
L 697 3053 
L 147 3053 
L 147 3500 
L 697 3500 
L 697 3744 
Q 697 4328 969 4595 
Q 1241 4863 1831 4863 
L 2375 4863 
z
" id="DejaVuSans-66" transform="scale(0.015625)"/>
       </defs>
       <use xlink:href="#DejaVuSans-49"/>
       <use x="29.492188" xlink:href="#DejaVuSans-54"/>
       <use x="90.576172" xlink:href="#DejaVuSans-20"/>
       <use x="122.363281" xlink:href="#DejaVuSans-66"/>
       <use x="157.568359" xlink:href="#DejaVuSans-72"/>
       <use x="196.431641" xlink:href="#DejaVuSans-65"/>
       <use x="257.955078" xlink:href="#DejaVuSans-65"/>
       <use x="319.478516" xlink:href="#DejaVuSans-6c"/>
       <use x="347.261719" xlink:href="#DejaVuSans-61"/>
       <use x="408.541016" xlink:href="#DejaVuSans-6e"/>
       <use x="471.919922" xlink:href="#DejaVuSans-63"/>
       <use x="526.900391" xlink:href="#DejaVuSans-65"/>
      </g>
     </g>
    </g>
    <g id="xtick_11">
     <g id="line2d_11">
      <g>
       <use style="stroke:#000000;stroke-width:0.8;" x="687.257851" xlink:href="#m61c9542ca9" y="252"/>
      </g>
     </g>
     <g id="text_11">
      <!-- M&amp;A advisors -->
      <g transform="translate(690.017226 327.267187)rotate(-90)scale(0.1 -0.1)">
       <defs>
        <path d="M 628 4666 
L 1569 4666 
L 2759 1491 
L 3956 4666 
L 4897 4666 
L 4897 0 
L 4281 0 
L 4281 4097 
L 3078 897 
L 2444 897 
L 1241 4097 
L 1241 0 
L 628 0 
L 628 4666 
z
" id="DejaVuSans-4d" transform="scale(0.015625)"/>
        <path d="M 1556 2509 
Q 1272 2256 1139 2004 
Q 1006 1753 1006 1478 
Q 1006 1022 1337 719 
Q 1669 416 2169 416 
Q 2466 416 2725 514 
Q 2984 613 3213 813 
L 1556 2509 
z
M 1997 2859 
L 3584 1234 
Q 3769 1513 3872 1830 
Q 3975 2147 3994 2503 
L 4575 2503 
Q 4538 2091 4375 1687 
Q 4213 1284 3922 891 
L 4794 0 
L 4006 0 
L 3559 459 
Q 3234 181 2878 45 
Q 2522 -91 2113 -91 
Q 1359 -91 881 339 
Q 403 769 403 1441 
Q 403 1841 612 2192 
Q 822 2544 1241 2853 
Q 1091 3050 1012 3245 
Q 934 3441 934 3628 
Q 934 4134 1281 4442 
Q 1628 4750 2203 4750 
Q 2463 4750 2720 4694 
Q 2978 4638 3244 4525 
L 3244 3956 
Q 2972 4103 2725 4179 
Q 2478 4256 2266 4256 
Q 1938 4256 1733 4082 
Q 1528 3909 1528 3634 
Q 1528 3475 1620 3314 
Q 1713 3153 1997 2859 
z
" id="DejaVuSans-26" transform="scale(0.015625)"/>
        <path d="M 2188 4044 
L 1331 1722 
L 3047 1722 
L 2188 4044 
z
M 1831 4666 
L 2547 4666 
L 4325 0 
L 3669 0 
L 3244 1197 
L 1141 1197 
L 716 0 
L 50 0 
L 1831 4666 
z
" id="DejaVuSans-41" transform="scale(0.015625)"/>
       </defs>
       <use xlink:href="#DejaVuSans-4d"/>
       <use x="86.279297" xlink:href="#DejaVuSans-26"/>
       <use x="164.257812" xlink:href="#DejaVuSans-41"/>
       <use x="232.666016" xlink:href="#DejaVuSans-20"/>
       <use x="264.453125" xlink:href="#DejaVuSans-61"/>
       <use x="325.732422" xlink:href="#DejaVuSans-64"/>
       <use x="389.208984" xlink:href="#DejaVuSans-76"/>
       <use x="448.388672" xlink:href="#DejaVuSans-69"/>
       <use x="476.171875" xlink:href="#DejaVuSans-73"/>
       <use x="528.271484" xlink:href="#DejaVuSans-6f"/>
       <use x="589.453125" xlink:href="#DejaVuSans-72"/>
       <use x="630.566406" xlink:href="#DejaVuSans-73"/>
      </g>
     </g>
    </g>
    <g id="xtick_12">
     <g id="line2d_12">
      <g>
       <use style="stroke:#000000;stroke-width:0.8;" x="733.373554" xlink:href="#m61c9542ca9" y="252"/>
      </g>
     </g>
     <g id="text_12">
      <!-- Manufacturers -->
      <g transform="translate(736.132929 331.195312)rotate(-90)scale(0.1 -0.1)">
       <use xlink:href="#DejaVuSans-4d"/>
       <use x="86.279297" xlink:href="#DejaVuSans-61"/>
       <use x="147.558594" xlink:href="#DejaVuSans-6e"/>
       <use x="210.9375" xlink:href="#DejaVuSans-75"/>
       <use x="274.316406" xlink:href="#DejaVuSans-66"/>
       <use x="309.521484" xlink:href="#DejaVuSans-61"/>
       <use x="370.800781" xlink:href="#DejaVuSans-63"/>
       <use x="425.78125" xlink:href="#DejaVuSans-74"/>
       <use x="464.990234" xlink:href="#DejaVuSans-75"/>
       <use x="528.369141" xlink:href="#DejaVuSans-72"/>
       <use x="567.232422" xlink:href="#DejaVuSans-65"/>
       <use x="628.755859" xlink:href="#DejaVuSans-72"/>
       <use x="669.869141" xlink:href="#DejaVuSans-73"/>
      </g>
     </g>
    </g>
    <g id="xtick_13">
     <g id="line2d_13">
      <g>
       <use style="stroke:#000000;stroke-width:0.8;" x="779.489256" xlink:href="#m61c9542ca9" y="252"/>
      </g>
     </g>
     <g id="text_13">
      <!-- Online games -->
      <g transform="translate(782.248631 328.014063)rotate(-90)scale(0.1 -0.1)">
       <defs>
        <path d="M 2522 4238 
Q 1834 4238 1429 3725 
Q 1025 3213 1025 2328 
Q 1025 1447 1429 934 
Q 1834 422 2522 422 
Q 3209 422 3611 934 
Q 4013 1447 4013 2328 
Q 4013 3213 3611 3725 
Q 3209 4238 2522 4238 
z
M 2522 4750 
Q 3503 4750 4090 4092 
Q 4678 3434 4678 2328 
Q 4678 1225 4090 567 
Q 3503 -91 2522 -91 
Q 1538 -91 948 565 
Q 359 1222 359 2328 
Q 359 3434 948 4092 
Q 1538 4750 2522 4750 
z
" id="DejaVuSans-4f" transform="scale(0.015625)"/>
       </defs>
       <use xlink:href="#DejaVuSans-4f"/>
       <use x="78.710938" xlink:href="#DejaVuSans-6e"/>
       <use x="142.089844" xlink:href="#DejaVuSans-6c"/>
       <use x="169.873047" xlink:href="#DejaVuSans-69"/>
       <use x="197.65625" xlink:href="#DejaVuSans-6e"/>
       <use x="261.035156" xlink:href="#DejaVuSans-65"/>
       <use x="322.558594" xlink:href="#DejaVuSans-20"/>
       <use x="354.345703" xlink:href="#DejaVuSans-67"/>
       <use x="417.822266" xlink:href="#DejaVuSans-61"/>
       <use x="479.101562" xlink:href="#DejaVuSans-6d"/>
       <use x="576.513672" xlink:href="#DejaVuSans-65"/>
       <use x="638.037109" xlink:href="#DejaVuSans-73"/>
      </g>
     </g>
    </g>
    <g id="xtick_14">
     <g id="line2d_14">
      <g>
       <use style="stroke:#000000;stroke-width:0.8;" x="825.604959" xlink:href="#m61c9542ca9" y="252"/>
      </g>
     </g>
     <g id="text_14">
      <!-- Payments tech -->
      <g transform="translate(828.364334 333.075)rotate(-90)scale(0.1 -0.1)">
       <defs>
        <path d="M 1259 4147 
L 1259 2394 
L 2053 2394 
Q 2494 2394 2734 2622 
Q 2975 2850 2975 3272 
Q 2975 3691 2734 3919 
Q 2494 4147 2053 4147 
L 1259 4147 
z
M 628 4666 
L 2053 4666 
Q 2838 4666 3239 4311 
Q 3641 3956 3641 3272 
Q 3641 2581 3239 2228 
Q 2838 1875 2053 1875 
L 1259 1875 
L 1259 0 
L 628 0 
L 628 4666 
z
" id="DejaVuSans-50" transform="scale(0.015625)"/>
        <path d="M 2059 -325 
Q 1816 -950 1584 -1140 
Q 1353 -1331 966 -1331 
L 506 -1331 
L 506 -850 
L 844 -850 
Q 1081 -850 1212 -737 
Q 1344 -625 1503 -206 
L 1606 56 
L 191 3500 
L 800 3500 
L 1894 763 
L 2988 3500 
L 3597 3500 
L 2059 -325 
z
" id="DejaVuSans-79" transform="scale(0.015625)"/>
       </defs>
       <use xlink:href="#DejaVuSans-50"/>
       <use x="55.802734" xlink:href="#DejaVuSans-61"/>
       <use x="117.082031" xlink:href="#DejaVuSans-79"/>
       <use x="176.261719" xlink:href="#DejaVuSans-6d"/>
       <use x="273.673828" xlink:href="#DejaVuSans-65"/>
       <use x="335.197266" xlink:href="#DejaVuSans-6e"/>
       <use x="398.576172" xlink:href="#DejaVuSans-74"/>
       <use x="437.785156" xlink:href="#DejaVuSans-73"/>
       <use x="489.884766" xlink:href="#DejaVuSans-20"/>
       <use x="521.671875" xlink:href="#DejaVuSans-74"/>
       <use x="560.880859" xlink:href="#DejaVuSans-65"/>
       <use x="622.404297" xlink:href="#DejaVuSans-63"/>
       <use x="677.384766" xlink:href="#DejaVuSans-68"/>
      </g>
     </g>
    </g>
    <g id="xtick_15">
     <g id="line2d_15">
      <g>
       <use style="stroke:#000000;stroke-width:0.8;" x="871.720661" xlink:href="#m61c9542ca9" y="252"/>
      </g>
     </g>
     <g id="text_15">
      <!-- PE fund -->
      <g transform="translate(874.480036 297.070312)rotate(-90)scale(0.1 -0.1)">
       <defs>
        <path d="M 628 4666 
L 3578 4666 
L 3578 4134 
L 1259 4134 
L 1259 2753 
L 3481 2753 
L 3481 2222 
L 1259 2222 
L 1259 531 
L 3634 531 
L 3634 0 
L 628 0 
L 628 4666 
z
" id="DejaVuSans-45" transform="scale(0.015625)"/>
       </defs>
       <use xlink:href="#DejaVuSans-50"/>
       <use x="60.302734" xlink:href="#DejaVuSans-45"/>
       <use x="123.486328" xlink:href="#DejaVuSans-20"/>
       <use x="155.273438" xlink:href="#DejaVuSans-66"/>
       <use x="190.478516" xlink:href="#DejaVuSans-75"/>
       <use x="253.857422" xlink:href="#DejaVuSans-6e"/>
       <use x="317.236328" xlink:href="#DejaVuSans-64"/>
      </g>
     </g>
    </g>
    <g id="xtick_16">
     <g id="line2d_16">
      <g>
       <use style="stroke:#000000;stroke-width:0.8;" x="917.836364" xlink:href="#m61c9542ca9" y="252"/>
      </g>
     </g>
     <g id="text_16">
      <!-- Procurement software -->
      <g transform="translate(920.595739 369.003125)rotate(-90)scale(0.1 -0.1)">
       <defs>
        <path d="M 269 3500 
L 844 3500 
L 1563 769 
L 2278 3500 
L 2956 3500 
L 3675 769 
L 4391 3500 
L 4966 3500 
L 4050 0 
L 3372 0 
L 2619 2869 
L 1863 0 
L 1184 0 
L 269 3500 
z
" id="DejaVuSans-77" transform="scale(0.015625)"/>
       </defs>
       <use xlink:href="#DejaVuSans-50"/>
       <use x="58.552734" xlink:href="#DejaVuSans-72"/>
       <use x="97.416016" xlink:href="#DejaVuSans-6f"/>
       <use x="158.597656" xlink:href="#DejaVuSans-63"/>
       <use x="213.578125" xlink:href="#DejaVuSans-75"/>
       <use x="276.957031" xlink:href="#DejaVuSans-72"/>
       <use x="315.820312" xlink:href="#DejaVuSans-65"/>
       <use x="377.34375" xlink:href="#DejaVuSans-6d"/>
       <use x="474.755859" xlink:href="#DejaVuSans-65"/>
       <use x="536.279297" xlink:href="#DejaVuSans-6e"/>
       <use x="599.658203" xlink:href="#DejaVuSans-74"/>
       <use x="638.867188" xlink:href="#DejaVuSans-20"/>
       <use x="670.654297" xlink:href="#DejaVuSans-73"/>
       <use x="722.753906" xlink:href="#DejaVuSans-6f"/>
       <use x="783.935547" xlink:href="#DejaVuSans-66"/>
       <use x="817.390625" xlink:href="#DejaVuSans-74"/>
       <use x="856.599609" xlink:href="#DejaVuSans-77"/>
       <use x="938.386719" xlink:href="#DejaVuSans-61"/>
       <use x="999.666016" xlink:href="#DejaVuSans-72"/>
       <use x="1038.529297" xlink:href="#DejaVuSans-65"/>
      </g>
     </g>
    </g>
    <g id="xtick_17">
     <g id="line2d_17">
      <g>
       <use style="stroke:#000000;stroke-width:0.8;" x="963.952066" xlink:href="#m61c9542ca9" y="252"/>
      </g>
     </g>
     <g id="text_17">
      <!-- Resource-efficiency -->
      <g transform="translate(966.711441 356.61875)rotate(-90)scale(0.1 -0.1)">
       <defs>
        <path d="M 2841 2188 
Q 3044 2119 3236 1894 
Q 3428 1669 3622 1275 
L 4263 0 
L 3584 0 
L 2988 1197 
Q 2756 1666 2539 1819 
Q 2322 1972 1947 1972 
L 1259 1972 
L 1259 0 
L 628 0 
L 628 4666 
L 2053 4666 
Q 2853 4666 3247 4331 
Q 3641 3997 3641 3322 
Q 3641 2881 3436 2590 
Q 3231 2300 2841 2188 
z
M 1259 4147 
L 1259 2491 
L 2053 2491 
Q 2509 2491 2742 2702 
Q 2975 2913 2975 3322 
Q 2975 3731 2742 3939 
Q 2509 4147 2053 4147 
L 1259 4147 
z
" id="DejaVuSans-52" transform="scale(0.015625)"/>
        <path d="M 313 2009 
L 1997 2009 
L 1997 1497 
L 313 1497 
L 313 2009 
z
" id="DejaVuSans-2d" transform="scale(0.015625)"/>
       </defs>
       <use xlink:href="#DejaVuSans-52"/>
       <use x="64.982422" xlink:href="#DejaVuSans-65"/>
       <use x="126.505859" xlink:href="#DejaVuSans-73"/>
       <use x="178.605469" xlink:href="#DejaVuSans-6f"/>
       <use x="239.787109" xlink:href="#DejaVuSans-75"/>
       <use x="303.166016" xlink:href="#DejaVuSans-72"/>
       <use x="342.029297" xlink:href="#DejaVuSans-63"/>
       <use x="397.009766" xlink:href="#DejaVuSans-65"/>
       <use x="458.533203" xlink:href="#DejaVuSans-2d"/>
       <use x="494.617188" xlink:href="#DejaVuSans-65"/>
       <use x="556.140625" xlink:href="#DejaVuSans-66"/>
       <use x="591.345703" xlink:href="#DejaVuSans-66"/>
       <use x="626.550781" xlink:href="#DejaVuSans-69"/>
       <use x="654.333984" xlink:href="#DejaVuSans-63"/>
       <use x="709.314453" xlink:href="#DejaVuSans-69"/>
       <use x="737.097656" xlink:href="#DejaVuSans-65"/>
       <use x="798.621094" xlink:href="#DejaVuSans-6e"/>
       <use x="862" xlink:href="#DejaVuSans-63"/>
       <use x="916.980469" xlink:href="#DejaVuSans-79"/>
      </g>
     </g>
    </g>
    <g id="xtick_18">
     <g id="line2d_18">
      <g>
       <use style="stroke:#000000;stroke-width:0.8;" x="1010.067769" xlink:href="#m61c9542ca9" y="252"/>
      </g>
     </g>
     <g id="text_18">
      <!-- SaaS -->
      <g transform="translate(1012.827144 283.953125)rotate(-90)scale(0.1 -0.1)">
       <defs>
        <path d="M 3425 4513 
L 3425 3897 
Q 3066 4069 2747 4153 
Q 2428 4238 2131 4238 
Q 1616 4238 1336 4038 
Q 1056 3838 1056 3469 
Q 1056 3159 1242 3001 
Q 1428 2844 1947 2747 
L 2328 2669 
Q 3034 2534 3370 2195 
Q 3706 1856 3706 1288 
Q 3706 609 3251 259 
Q 2797 -91 1919 -91 
Q 1588 -91 1214 -16 
Q 841 59 441 206 
L 441 856 
Q 825 641 1194 531 
Q 1563 422 1919 422 
Q 2459 422 2753 634 
Q 3047 847 3047 1241 
Q 3047 1584 2836 1778 
Q 2625 1972 2144 2069 
L 1759 2144 
Q 1053 2284 737 2584 
Q 422 2884 422 3419 
Q 422 4038 858 4394 
Q 1294 4750 2059 4750 
Q 2388 4750 2728 4690 
Q 3069 4631 3425 4513 
z
" id="DejaVuSans-53" transform="scale(0.015625)"/>
       </defs>
       <use xlink:href="#DejaVuSans-53"/>
       <use x="63.476562" xlink:href="#DejaVuSans-61"/>
       <use x="124.755859" xlink:href="#DejaVuSans-61"/>
       <use x="186.035156" xlink:href="#DejaVuSans-53"/>
      </g>
     </g>
    </g>
    <g id="xtick_19">
     <g id="line2d_19">
      <g>
       <use style="stroke:#000000;stroke-width:0.8;" x="1056.183471" xlink:href="#m61c9542ca9" y="252"/>
      </g>
     </g>
     <g id="text_19">
      <!-- Sustainability -->
      <g transform="translate(1058.942846 326.709375)rotate(-90)scale(0.1 -0.1)">
       <use xlink:href="#DejaVuSans-53"/>
       <use x="63.476562" xlink:href="#DejaVuSans-75"/>
       <use x="126.855469" xlink:href="#DejaVuSans-73"/>
       <use x="178.955078" xlink:href="#DejaVuSans-74"/>
       <use x="218.164062" xlink:href="#DejaVuSans-61"/>
       <use x="279.443359" xlink:href="#DejaVuSans-69"/>
       <use x="307.226562" xlink:href="#DejaVuSans-6e"/>
       <use x="370.605469" xlink:href="#DejaVuSans-61"/>
       <use x="431.884766" xlink:href="#DejaVuSans-62"/>
       <use x="495.361328" xlink:href="#DejaVuSans-69"/>
       <use x="523.144531" xlink:href="#DejaVuSans-6c"/>
       <use x="550.927734" xlink:href="#DejaVuSans-69"/>
       <use x="578.710938" xlink:href="#DejaVuSans-74"/>
       <use x="617.919922" xlink:href="#DejaVuSans-79"/>
      </g>
     </g>
    </g>
    <g id="xtick_20">
     <g id="line2d_20">
      <g>
       <use style="stroke:#000000;stroke-width:0.8;" x="1102.299174" xlink:href="#m61c9542ca9" y="252"/>
      </g>
     </g>
     <g id="text_20">
      <!-- Wind turbine tech -->
      <g transform="translate(1105.058549 348.378125)rotate(-90)scale(0.1 -0.1)">
       <defs>
        <path d="M 213 4666 
L 850 4666 
L 1831 722 
L 2809 4666 
L 3519 4666 
L 4500 722 
L 5478 4666 
L 6119 4666 
L 4947 0 
L 4153 0 
L 3169 4050 
L 2175 0 
L 1381 0 
L 213 4666 
z
" id="DejaVuSans-57" transform="scale(0.015625)"/>
       </defs>
       <use xlink:href="#DejaVuSans-57"/>
       <use x="96.626953" xlink:href="#DejaVuSans-69"/>
       <use x="124.410156" xlink:href="#DejaVuSans-6e"/>
       <use x="187.789062" xlink:href="#DejaVuSans-64"/>
       <use x="251.265625" xlink:href="#DejaVuSans-20"/>
       <use x="283.052734" xlink:href="#DejaVuSans-74"/>
       <use x="322.261719" xlink:href="#DejaVuSans-75"/>
       <use x="385.640625" xlink:href="#DejaVuSans-72"/>
       <use x="426.753906" xlink:href="#DejaVuSans-62"/>
       <use x="490.230469" xlink:href="#DejaVuSans-69"/>
       <use x="518.013672" xlink:href="#DejaVuSans-6e"/>
       <use x="581.392578" xlink:href="#DejaVuSans-65"/>
       <use x="642.916016" xlink:href="#DejaVuSans-20"/>
       <use x="674.703125" xlink:href="#DejaVuSans-74"/>
       <use x="713.912109" xlink:href="#DejaVuSans-65"/>
       <use x="775.435547" xlink:href="#DejaVuSans-63"/>
       <use x="830.416016" xlink:href="#DejaVuSans-68"/>
      </g>
     </g>
    </g>
   </g>
   <g id="matplotlib.axis_2">
    <g id="ytick_1">
     <g id="line2d_21">
      <path clip-path="url(#pd8d3534a49)" d="M 162 252 
L 1166.4 252 
" style="fill:none;stroke:#b0b0b0;stroke-linecap:square;stroke-width:0.8;"/>
     </g>
     <g id="line2d_22">
      <defs>
       <path d="M 0 0 
L -3.5 0 
" id="mf7a1d4efe9" style="stroke:#000000;stroke-width:0.8;"/>
      </defs>
      <g>
       <use style="stroke:#000000;stroke-width:0.8;" x="162" xlink:href="#mf7a1d4efe9" y="252"/>
      </g>
     </g>
     <g id="text_21">
      <!-- 0.0 -->
      <g transform="translate(139.096875 255.799219)scale(0.1 -0.1)">
       <defs>
        <path d="M 2034 4250 
Q 1547 4250 1301 3770 
Q 1056 3291 1056 2328 
Q 1056 1369 1301 889 
Q 1547 409 2034 409 
Q 2525 409 2770 889 
Q 3016 1369 3016 2328 
Q 3016 3291 2770 3770 
Q 2525 4250 2034 4250 
z
M 2034 4750 
Q 2819 4750 3233 4129 
Q 3647 3509 3647 2328 
Q 3647 1150 3233 529 
Q 2819 -91 2034 -91 
Q 1250 -91 836 529 
Q 422 1150 422 2328 
Q 422 3509 836 4129 
Q 1250 4750 2034 4750 
z
" id="DejaVuSans-30" transform="scale(0.015625)"/>
        <path d="M 684 794 
L 1344 794 
L 1344 0 
L 684 0 
L 684 794 
z
" id="DejaVuSans-2e" transform="scale(0.015625)"/>
       </defs>
       <use xlink:href="#DejaVuSans-30"/>
       <use x="63.623047" xlink:href="#DejaVuSans-2e"/>
       <use x="95.410156" xlink:href="#DejaVuSans-30"/>
      </g>
     </g>
    </g>
    <g id="ytick_2">
     <g id="line2d_23">
      <path clip-path="url(#pd8d3534a49)" d="M 162 212.465455 
L 1166.4 212.465455 
" style="fill:none;stroke:#b0b0b0;stroke-linecap:square;stroke-width:0.8;"/>
     </g>
     <g id="line2d_24">
      <g>
       <use style="stroke:#000000;stroke-width:0.8;" x="162" xlink:href="#mf7a1d4efe9" y="212.465455"/>
      </g>
     </g>
     <g id="text_22">
      <!-- 0.2 -->
      <g transform="translate(139.096875 216.264673)scale(0.1 -0.1)">
       <defs>
        <path d="M 1228 531 
L 3431 531 
L 3431 0 
L 469 0 
L 469 531 
Q 828 903 1448 1529 
Q 2069 2156 2228 2338 
Q 2531 2678 2651 2914 
Q 2772 3150 2772 3378 
Q 2772 3750 2511 3984 
Q 2250 4219 1831 4219 
Q 1534 4219 1204 4116 
Q 875 4013 500 3803 
L 500 4441 
Q 881 4594 1212 4672 
Q 1544 4750 1819 4750 
Q 2544 4750 2975 4387 
Q 3406 4025 3406 3419 
Q 3406 3131 3298 2873 
Q 3191 2616 2906 2266 
Q 2828 2175 2409 1742 
Q 1991 1309 1228 531 
z
" id="DejaVuSans-32" transform="scale(0.015625)"/>
       </defs>
       <use xlink:href="#DejaVuSans-30"/>
       <use x="63.623047" xlink:href="#DejaVuSans-2e"/>
       <use x="95.410156" xlink:href="#DejaVuSans-32"/>
      </g>
     </g>
    </g>
    <g id="ytick_3">
     <g id="line2d_25">
      <path clip-path="url(#pd8d3534a49)" d="M 162 172.930909 
L 1166.4 172.930909 
" style="fill:none;stroke:#b0b0b0;stroke-linecap:square;stroke-width:0.8;"/>
     </g>
     <g id="line2d_26">
      <g>
       <use style="stroke:#000000;stroke-width:0.8;" x="162" xlink:href="#mf7a1d4efe9" y="172.930909"/>
      </g>
     </g>
     <g id="text_23">
      <!-- 0.4 -->
      <g transform="translate(139.096875 176.730128)scale(0.1 -0.1)">
       <defs>
        <path d="M 2419 4116 
L 825 1625 
L 2419 1625 
L 2419 4116 
z
M 2253 4666 
L 3047 4666 
L 3047 1625 
L 3713 1625 
L 3713 1100 
L 3047 1100 
L 3047 0 
L 2419 0 
L 2419 1100 
L 313 1100 
L 313 1709 
L 2253 4666 
z
" id="DejaVuSans-34" transform="scale(0.015625)"/>
       </defs>
       <use xlink:href="#DejaVuSans-30"/>
       <use x="63.623047" xlink:href="#DejaVuSans-2e"/>
       <use x="95.410156" xlink:href="#DejaVuSans-34"/>
      </g>
     </g>
    </g>
    <g id="ytick_4">
     <g id="line2d_27">
      <path clip-path="url(#pd8d3534a49)" d="M 162 133.396364 
L 1166.4 133.396364 
" style="fill:none;stroke:#b0b0b0;stroke-linecap:square;stroke-width:0.8;"/>
     </g>
     <g id="line2d_28">
      <g>
       <use style="stroke:#000000;stroke-width:0.8;" x="162" xlink:href="#mf7a1d4efe9" y="133.396364"/>
      </g>
     </g>
     <g id="text_24">
      <!-- 0.6 -->
      <g transform="translate(139.096875 137.195582)scale(0.1 -0.1)">
       <defs>
        <path d="M 2113 2584 
Q 1688 2584 1439 2293 
Q 1191 2003 1191 1497 
Q 1191 994 1439 701 
Q 1688 409 2113 409 
Q 2538 409 2786 701 
Q 3034 994 3034 1497 
Q 3034 2003 2786 2293 
Q 2538 2584 2113 2584 
z
M 3366 4563 
L 3366 3988 
Q 3128 4100 2886 4159 
Q 2644 4219 2406 4219 
Q 1781 4219 1451 3797 
Q 1122 3375 1075 2522 
Q 1259 2794 1537 2939 
Q 1816 3084 2150 3084 
Q 2853 3084 3261 2657 
Q 3669 2231 3669 1497 
Q 3669 778 3244 343 
Q 2819 -91 2113 -91 
Q 1303 -91 875 529 
Q 447 1150 447 2328 
Q 447 3434 972 4092 
Q 1497 4750 2381 4750 
Q 2619 4750 2861 4703 
Q 3103 4656 3366 4563 
z
" id="DejaVuSans-36" transform="scale(0.015625)"/>
       </defs>
       <use xlink:href="#DejaVuSans-30"/>
       <use x="63.623047" xlink:href="#DejaVuSans-2e"/>
       <use x="95.410156" xlink:href="#DejaVuSans-36"/>
      </g>
     </g>
    </g>
    <g id="ytick_5">
     <g id="line2d_29">
      <path clip-path="url(#pd8d3534a49)" d="M 162 93.861818 
L 1166.4 93.861818 
" style="fill:none;stroke:#b0b0b0;stroke-linecap:square;stroke-width:0.8;"/>
     </g>
     <g id="line2d_30">
      <g>
       <use style="stroke:#000000;stroke-width:0.8;" x="162" xlink:href="#mf7a1d4efe9" y="93.861818"/>
      </g>
     </g>
     <g id="text_25">
      <!-- 0.8 -->
      <g transform="translate(139.096875 97.661037)scale(0.1 -0.1)">
       <defs>
        <path d="M 2034 2216 
Q 1584 2216 1326 1975 
Q 1069 1734 1069 1313 
Q 1069 891 1326 650 
Q 1584 409 2034 409 
Q 2484 409 2743 651 
Q 3003 894 3003 1313 
Q 3003 1734 2745 1975 
Q 2488 2216 2034 2216 
z
M 1403 2484 
Q 997 2584 770 2862 
Q 544 3141 544 3541 
Q 544 4100 942 4425 
Q 1341 4750 2034 4750 
Q 2731 4750 3128 4425 
Q 3525 4100 3525 3541 
Q 3525 3141 3298 2862 
Q 3072 2584 2669 2484 
Q 3125 2378 3379 2068 
Q 3634 1759 3634 1313 
Q 3634 634 3220 271 
Q 2806 -91 2034 -91 
Q 1263 -91 848 271 
Q 434 634 434 1313 
Q 434 1759 690 2068 
Q 947 2378 1403 2484 
z
M 1172 3481 
Q 1172 3119 1398 2916 
Q 1625 2713 2034 2713 
Q 2441 2713 2670 2916 
Q 2900 3119 2900 3481 
Q 2900 3844 2670 4047 
Q 2441 4250 2034 4250 
Q 1625 4250 1398 4047 
Q 1172 3844 1172 3481 
z
" id="DejaVuSans-38" transform="scale(0.015625)"/>
       </defs>
       <use xlink:href="#DejaVuSans-30"/>
       <use x="63.623047" xlink:href="#DejaVuSans-2e"/>
       <use x="95.410156" xlink:href="#DejaVuSans-38"/>
      </g>
     </g>
    </g>
    <g id="ytick_6">
     <g id="line2d_31">
      <path clip-path="url(#pd8d3534a49)" d="M 162 54.327273 
L 1166.4 54.327273 
" style="fill:none;stroke:#b0b0b0;stroke-linecap:square;stroke-width:0.8;"/>
     </g>
     <g id="line2d_32">
      <g>
       <use style="stroke:#000000;stroke-width:0.8;" x="162" xlink:href="#mf7a1d4efe9" y="54.327273"/>
      </g>
     </g>
     <g id="text_26">
      <!-- 1.0 -->
      <g transform="translate(139.096875 58.126491)scale(0.1 -0.1)">
       <defs>
        <path d="M 794 531 
L 1825 531 
L 1825 4091 
L 703 3866 
L 703 4441 
L 1819 4666 
L 2450 4666 
L 2450 531 
L 3481 531 
L 3481 0 
L 794 0 
L 794 531 
z
" id="DejaVuSans-31" transform="scale(0.015625)"/>
       </defs>
       <use xlink:href="#DejaVuSans-31"/>
       <use x="63.623047" xlink:href="#DejaVuSans-2e"/>
       <use x="95.410156" xlink:href="#DejaVuSans-30"/>
      </g>
     </g>
    </g>
   </g>
   <g id="patch_3">
    <path clip-path="url(#pd8d3534a49)" d="M 207.654545 252 
L 244.547107 252 
L 244.547107 186.109091 
L 207.654545 186.109091 
z
" style="fill:#1f77b4;"/>
   </g>
   <g id="patch_4">
    <path clip-path="url(#pd8d3534a49)" d="M 253.770248 252 
L 290.66281 252 
L 290.66281 93.861818 
L 253.770248 93.861818 
z
" style="fill:#1f77b4;"/>
   </g>
   <g id="patch_5">
    <path clip-path="url(#pd8d3534a49)" d="M 299.88595 252 
L 336.778512 252 
L 336.778512 240.372193 
L 299.88595 240.372193 
z
" style="fill:#1f77b4;"/>
   </g>
   <g id="patch_6">
    <path clip-path="url(#pd8d3534a49)" d="M 346.001653 252 
L 382.894215 252 
L 382.894215 54.327273 
L 346.001653 54.327273 
z
" style="fill:#1f77b4;"/>
   </g>
   <g id="patch_7">
    <path clip-path="url(#pd8d3534a49)" d="M 392.117355 252 
L 429.009917 252 
L 429.009917 153.163636 
L 392.117355 153.163636 
z
" style="fill:#1f77b4;"/>
   </g>
   <g id="patch_8">
    <path clip-path="url(#pd8d3534a49)" d="M 438.233058 252 
L 475.12562 252 
L 475.12562 153.163636 
L 438.233058 153.163636 
z
" style="fill:#1f77b4;"/>
   </g>
   <g id="patch_9">
    <path clip-path="url(#pd8d3534a49)" d="M 484.34876 252 
L 521.241322 252 
L 521.241322 223.761039 
L 484.34876 223.761039 
z
" style="fill:#1f77b4;"/>
   </g>
   <g id="patch_10">
    <path clip-path="url(#pd8d3534a49)" d="M 530.464463 252 
L 567.357025 252 
L 567.357025 153.163636 
L 530.464463 153.163636 
z
" style="fill:#1f77b4;"/>
   </g>
   <g id="patch_11">
    <path clip-path="url(#pd8d3534a49)" d="M 576.580165 252 
L 613.472727 252 
L 613.472727 54.327273 
L 576.580165 54.327273 
z
" style="fill:#1f77b4;"/>
   </g>
   <g id="patch_12">
    <path clip-path="url(#pd8d3534a49)" d="M 622.695868 252 
L 659.58843 252 
L 659.58843 227.290909 
L 622.695868 227.290909 
z
" style="fill:#1f77b4;"/>
   </g>
   <g id="patch_13">
    <path clip-path="url(#pd8d3534a49)" d="M 668.81157 252 
L 705.704132 252 
L 705.704132 133.396364 
L 668.81157 133.396364 
z
" style="fill:#1f77b4;"/>
   </g>
   <g id="patch_14">
    <path clip-path="url(#pd8d3534a49)" d="M 714.927273 252 
L 751.819835 252 
L 751.819835 202.581818 
L 714.927273 202.581818 
z
" style="fill:#1f77b4;"/>
   </g>
   <g id="patch_15">
    <path clip-path="url(#pd8d3534a49)" d="M 761.042975 252 
L 797.935537 252 
L 797.935537 54.327273 
L 761.042975 54.327273 
z
" style="fill:#1f77b4;"/>
   </g>
   <g id="patch_16">
    <path clip-path="url(#pd8d3534a49)" d="M 807.158678 252 
L 844.05124 252 
L 844.05124 120.218182 
L 807.158678 120.218182 
z
" style="fill:#1f77b4;"/>
   </g>
   <g id="patch_17">
    <path clip-path="url(#pd8d3534a49)" d="M 853.27438 252 
L 890.166942 252 
L 890.166942 128.454545 
L 853.27438 128.454545 
z
" style="fill:#1f77b4;"/>
   </g>
   <g id="patch_18">
    <path clip-path="url(#pd8d3534a49)" d="M 899.390083 252 
L 936.282645 252 
L 936.282645 252 
L 899.390083 252 
z
" style="fill:#1f77b4;"/>
   </g>
   <g id="patch_19">
    <path clip-path="url(#pd8d3534a49)" d="M 945.505785 252 
L 982.398347 252 
L 982.398347 107.04 
L 945.505785 107.04 
z
" style="fill:#1f77b4;"/>
   </g>
   <g id="patch_20">
    <path clip-path="url(#pd8d3534a49)" d="M 991.621488 252 
L 1028.51405 252 
L 1028.51405 110.805195 
L 991.621488 110.805195 
z
" style="fill:#1f77b4;"/>
   </g>
   <g id="patch_21">
    <path clip-path="url(#pd8d3534a49)" d="M 1037.73719 252 
L 1074.629752 252 
L 1074.629752 54.327273 
L 1037.73719 54.327273 
z
" style="fill:#1f77b4;"/>
   </g>
   <g id="patch_22">
    <path clip-path="url(#pd8d3534a49)" d="M 1083.852893 252 
L 1120.745455 252 
L 1120.745455 93.861818 
L 1083.852893 93.861818 
z
" style="fill:#1f77b4;"/>
   </g>
   <g id="patch_23">
    <path d="M 162 252 
L 162 34.56 
" style="fill:none;stroke:#000000;stroke-linecap:square;stroke-linejoin:miter;stroke-width:0.8;"/>
   </g>
   <g id="patch_24">
    <path d="M 1166.4 252 
L 1166.4 34.56 
" style="fill:none;stroke:#000000;stroke-linecap:square;stroke-linejoin:miter;stroke-width:0.8;"/>
   </g>
   <g id="patch_25">
    <path d="M 162 252 
L 1166.4 252 
" style="fill:none;stroke:#000000;stroke-linecap:square;stroke-linejoin:miter;stroke-width:0.8;"/>
   </g>
   <g id="patch_26">
    <path d="M 162 34.56 
L 1166.4 34.56 
" style="fill:none;stroke:#000000;stroke-linecap:square;stroke-linejoin:miter;stroke-width:0.8;"/>
   </g>
   <g id="text_27">
    <!-- 0.333333 -->
    <g transform="translate(202.243014 184.029403)scale(0.1 -0.1)">
     <defs>
      <path d="M 2597 2516 
Q 3050 2419 3304 2112 
Q 3559 1806 3559 1356 
Q 3559 666 3084 287 
Q 2609 -91 1734 -91 
Q 1441 -91 1130 -33 
Q 819 25 488 141 
L 488 750 
Q 750 597 1062 519 
Q 1375 441 1716 441 
Q 2309 441 2620 675 
Q 2931 909 2931 1356 
Q 2931 1769 2642 2001 
Q 2353 2234 1838 2234 
L 1294 2234 
L 1294 2753 
L 1863 2753 
Q 2328 2753 2575 2939 
Q 2822 3125 2822 3475 
Q 2822 3834 2567 4026 
Q 2313 4219 1838 4219 
Q 1578 4219 1281 4162 
Q 984 4106 628 3988 
L 628 4550 
Q 988 4650 1302 4700 
Q 1616 4750 1894 4750 
Q 2613 4750 3031 4423 
Q 3450 4097 3450 3541 
Q 3450 3153 3228 2886 
Q 3006 2619 2597 2516 
z
" id="DejaVuSans-33" transform="scale(0.015625)"/>
     </defs>
     <use xlink:href="#DejaVuSans-30"/>
     <use x="63.623047" xlink:href="#DejaVuSans-2e"/>
     <use x="95.410156" xlink:href="#DejaVuSans-33"/>
     <use x="159.033203" xlink:href="#DejaVuSans-33"/>
     <use x="222.65625" xlink:href="#DejaVuSans-33"/>
     <use x="286.279297" xlink:href="#DejaVuSans-33"/>
     <use x="349.902344" xlink:href="#DejaVuSans-33"/>
     <use x="413.525391" xlink:href="#DejaVuSans-33"/>
    </g>
   </g>
   <g id="text_28">
    <!-- 0.8 -->
    <g transform="translate(264.264966 91.782131)scale(0.1 -0.1)">
     <use xlink:href="#DejaVuSans-30"/>
     <use x="63.623047" xlink:href="#DejaVuSans-2e"/>
     <use x="95.410156" xlink:href="#DejaVuSans-38"/>
    </g>
   </g>
   <g id="text_29">
    <!-- 0.0588235 -->
    <g transform="translate(291.293169 238.292505)scale(0.1 -0.1)">
     <defs>
      <path d="M 691 4666 
L 3169 4666 
L 3169 4134 
L 1269 4134 
L 1269 2991 
Q 1406 3038 1543 3061 
Q 1681 3084 1819 3084 
Q 2600 3084 3056 2656 
Q 3513 2228 3513 1497 
Q 3513 744 3044 326 
Q 2575 -91 1722 -91 
Q 1428 -91 1123 -41 
Q 819 9 494 109 
L 494 744 
Q 775 591 1075 516 
Q 1375 441 1709 441 
Q 2250 441 2565 725 
Q 2881 1009 2881 1497 
Q 2881 1984 2565 2268 
Q 2250 2553 1709 2553 
Q 1456 2553 1204 2497 
Q 953 2441 691 2322 
L 691 4666 
z
" id="DejaVuSans-35" transform="scale(0.015625)"/>
     </defs>
     <use xlink:href="#DejaVuSans-30"/>
     <use x="63.623047" xlink:href="#DejaVuSans-2e"/>
     <use x="95.410156" xlink:href="#DejaVuSans-30"/>
     <use x="159.033203" xlink:href="#DejaVuSans-35"/>
     <use x="222.65625" xlink:href="#DejaVuSans-38"/>
     <use x="286.279297" xlink:href="#DejaVuSans-38"/>
     <use x="349.902344" xlink:href="#DejaVuSans-32"/>
     <use x="413.525391" xlink:href="#DejaVuSans-33"/>
     <use x="477.148438" xlink:href="#DejaVuSans-35"/>
    </g>
   </g>
   <g id="text_30">
    <!-- 1 -->
    <g transform="translate(361.266684 52.247585)scale(0.1 -0.1)">
     <use xlink:href="#DejaVuSans-31"/>
    </g>
   </g>
   <g id="text_31">
    <!-- 0.5 -->
    <g transform="translate(402.612074 151.083949)scale(0.1 -0.1)">
     <use xlink:href="#DejaVuSans-30"/>
     <use x="63.623047" xlink:href="#DejaVuSans-2e"/>
     <use x="95.410156" xlink:href="#DejaVuSans-35"/>
    </g>
   </g>
   <g id="text_32">
    <!-- 0.5 -->
    <g transform="translate(448.727776 151.083949)scale(0.1 -0.1)">
     <use xlink:href="#DejaVuSans-30"/>
     <use x="63.623047" xlink:href="#DejaVuSans-2e"/>
     <use x="95.410156" xlink:href="#DejaVuSans-35"/>
    </g>
   </g>
   <g id="text_33">
    <!-- 0.142857 -->
    <g transform="translate(478.937229 221.681351)scale(0.1 -0.1)">
     <defs>
      <path d="M 525 4666 
L 3525 4666 
L 3525 4397 
L 1831 0 
L 1172 0 
L 2766 4134 
L 525 4134 
L 525 4666 
z
" id="DejaVuSans-37" transform="scale(0.015625)"/>
     </defs>
     <use xlink:href="#DejaVuSans-30"/>
     <use x="63.623047" xlink:href="#DejaVuSans-2e"/>
     <use x="95.410156" xlink:href="#DejaVuSans-31"/>
     <use x="159.033203" xlink:href="#DejaVuSans-34"/>
     <use x="222.65625" xlink:href="#DejaVuSans-32"/>
     <use x="286.279297" xlink:href="#DejaVuSans-38"/>
     <use x="349.902344" xlink:href="#DejaVuSans-35"/>
     <use x="413.525391" xlink:href="#DejaVuSans-37"/>
    </g>
   </g>
   <g id="text_34">
    <!-- 0.5 -->
    <g transform="translate(540.959181 151.083949)scale(0.1 -0.1)">
     <use xlink:href="#DejaVuSans-30"/>
     <use x="63.623047" xlink:href="#DejaVuSans-2e"/>
     <use x="95.410156" xlink:href="#DejaVuSans-35"/>
    </g>
   </g>
   <g id="text_35">
    <!-- 1 -->
    <g transform="translate(591.845196 52.247585)scale(0.1 -0.1)">
     <use xlink:href="#DejaVuSans-31"/>
    </g>
   </g>
   <g id="text_36">
    <!-- 0.125 -->
    <g transform="translate(626.828086 225.211222)scale(0.1 -0.1)">
     <use xlink:href="#DejaVuSans-30"/>
     <use x="63.623047" xlink:href="#DejaVuSans-2e"/>
     <use x="95.410156" xlink:href="#DejaVuSans-31"/>
     <use x="159.033203" xlink:href="#DejaVuSans-32"/>
     <use x="222.65625" xlink:href="#DejaVuSans-35"/>
    </g>
   </g>
   <g id="text_37">
    <!-- 0.6 -->
    <g transform="translate(679.306289 131.316676)scale(0.1 -0.1)">
     <use xlink:href="#DejaVuSans-30"/>
     <use x="63.623047" xlink:href="#DejaVuSans-2e"/>
     <use x="95.410156" xlink:href="#DejaVuSans-36"/>
    </g>
   </g>
   <g id="text_38">
    <!-- 0.25 -->
    <g transform="translate(722.240741 200.502131)scale(0.1 -0.1)">
     <use xlink:href="#DejaVuSans-30"/>
     <use x="63.623047" xlink:href="#DejaVuSans-2e"/>
     <use x="95.410156" xlink:href="#DejaVuSans-32"/>
     <use x="159.033203" xlink:href="#DejaVuSans-35"/>
    </g>
   </g>
   <g id="text_39">
    <!-- 1 -->
    <g transform="translate(776.308006 52.247585)scale(0.1 -0.1)">
     <use xlink:href="#DejaVuSans-31"/>
    </g>
   </g>
   <g id="text_40">
    <!-- 0.666667 -->
    <g transform="translate(801.747146 118.138494)scale(0.1 -0.1)">
     <use xlink:href="#DejaVuSans-30"/>
     <use x="63.623047" xlink:href="#DejaVuSans-2e"/>
     <use x="95.410156" xlink:href="#DejaVuSans-36"/>
     <use x="159.033203" xlink:href="#DejaVuSans-36"/>
     <use x="222.65625" xlink:href="#DejaVuSans-36"/>
     <use x="286.279297" xlink:href="#DejaVuSans-36"/>
     <use x="349.902344" xlink:href="#DejaVuSans-36"/>
     <use x="413.525391" xlink:href="#DejaVuSans-37"/>
    </g>
   </g>
   <g id="text_41">
    <!-- 0.625 -->
    <g transform="translate(857.406599 126.374858)scale(0.1 -0.1)">
     <use xlink:href="#DejaVuSans-30"/>
     <use x="63.623047" xlink:href="#DejaVuSans-2e"/>
     <use x="95.410156" xlink:href="#DejaVuSans-36"/>
     <use x="159.033203" xlink:href="#DejaVuSans-32"/>
     <use x="222.65625" xlink:href="#DejaVuSans-35"/>
    </g>
   </g>
   <g id="text_42">
    <!-- 0 -->
    <g transform="translate(914.655114 249.920312)scale(0.1 -0.1)">
     <use xlink:href="#DejaVuSans-30"/>
    </g>
   </g>
   <g id="text_43">
    <!-- 0.733333 -->
    <g transform="translate(940.094254 104.960313)scale(0.1 -0.1)">
     <use xlink:href="#DejaVuSans-30"/>
     <use x="63.623047" xlink:href="#DejaVuSans-2e"/>
     <use x="95.410156" xlink:href="#DejaVuSans-37"/>
     <use x="159.033203" xlink:href="#DejaVuSans-33"/>
     <use x="222.65625" xlink:href="#DejaVuSans-33"/>
     <use x="286.279297" xlink:href="#DejaVuSans-33"/>
     <use x="349.902344" xlink:href="#DejaVuSans-33"/>
     <use x="413.525391" xlink:href="#DejaVuSans-33"/>
    </g>
   </g>
   <g id="text_44">
    <!-- 0.714286 -->
    <g transform="translate(986.209956 108.725507)scale(0.1 -0.1)">
     <use xlink:href="#DejaVuSans-30"/>
     <use x="63.623047" xlink:href="#DejaVuSans-2e"/>
     <use x="95.410156" xlink:href="#DejaVuSans-37"/>
     <use x="159.033203" xlink:href="#DejaVuSans-31"/>
     <use x="222.65625" xlink:href="#DejaVuSans-34"/>
     <use x="286.279297" xlink:href="#DejaVuSans-32"/>
     <use x="349.902344" xlink:href="#DejaVuSans-38"/>
     <use x="413.525391" xlink:href="#DejaVuSans-36"/>
    </g>
   </g>
   <g id="text_45">
    <!-- 1 -->
    <g transform="translate(1053.002221 52.247585)scale(0.1 -0.1)">
     <use xlink:href="#DejaVuSans-31"/>
    </g>
   </g>
   <g id="text_46">
    <!-- 0.8 -->
    <g transform="translate(1094.347611 91.782131)scale(0.1 -0.1)">
     <use xlink:href="#DejaVuSans-30"/>
     <use x="63.623047" xlink:href="#DejaVuSans-2e"/>
     <use x="95.410156" xlink:href="#DejaVuSans-38"/>
    </g>
   </g>
   <g id="text_47">
    <!-- Per file, tested on initials - XGBoost: feature vectors (avg acc.: 56.7%) -->
    <g transform="translate(453.818438 28.56)scale(0.12 -0.12)">
     <defs>
      <path d="M 750 794 
L 1409 794 
L 1409 256 
L 897 -744 
L 494 -744 
L 750 256 
L 750 794 
z
" id="DejaVuSans-2c" transform="scale(0.015625)"/>
      <path d="M 403 4666 
L 1081 4666 
L 2241 2931 
L 3406 4666 
L 4084 4666 
L 2584 2425 
L 4184 0 
L 3506 0 
L 2194 1984 
L 872 0 
L 191 0 
L 1856 2491 
L 403 4666 
z
" id="DejaVuSans-58" transform="scale(0.015625)"/>
      <path d="M 3809 666 
L 3809 1919 
L 2778 1919 
L 2778 2438 
L 4434 2438 
L 4434 434 
Q 4069 175 3628 42 
Q 3188 -91 2688 -91 
Q 1594 -91 976 548 
Q 359 1188 359 2328 
Q 359 3472 976 4111 
Q 1594 4750 2688 4750 
Q 3144 4750 3555 4637 
Q 3966 4525 4313 4306 
L 4313 3634 
Q 3963 3931 3569 4081 
Q 3175 4231 2741 4231 
Q 1884 4231 1454 3753 
Q 1025 3275 1025 2328 
Q 1025 1384 1454 906 
Q 1884 428 2741 428 
Q 3075 428 3337 486 
Q 3600 544 3809 666 
z
" id="DejaVuSans-47" transform="scale(0.015625)"/>
      <path d="M 1259 2228 
L 1259 519 
L 2272 519 
Q 2781 519 3026 730 
Q 3272 941 3272 1375 
Q 3272 1813 3026 2020 
Q 2781 2228 2272 2228 
L 1259 2228 
z
M 1259 4147 
L 1259 2741 
L 2194 2741 
Q 2656 2741 2882 2914 
Q 3109 3088 3109 3444 
Q 3109 3797 2882 3972 
Q 2656 4147 2194 4147 
L 1259 4147 
z
M 628 4666 
L 2241 4666 
Q 2963 4666 3353 4366 
Q 3744 4066 3744 3513 
Q 3744 3084 3544 2831 
Q 3344 2578 2956 2516 
Q 3422 2416 3680 2098 
Q 3938 1781 3938 1306 
Q 3938 681 3513 340 
Q 3088 0 2303 0 
L 628 0 
L 628 4666 
z
" id="DejaVuSans-42" transform="scale(0.015625)"/>
      <path d="M 750 794 
L 1409 794 
L 1409 0 
L 750 0 
L 750 794 
z
M 750 3309 
L 1409 3309 
L 1409 2516 
L 750 2516 
L 750 3309 
z
" id="DejaVuSans-3a" transform="scale(0.015625)"/>
      <path d="M 1984 4856 
Q 1566 4138 1362 3434 
Q 1159 2731 1159 2009 
Q 1159 1288 1364 580 
Q 1569 -128 1984 -844 
L 1484 -844 
Q 1016 -109 783 600 
Q 550 1309 550 2009 
Q 550 2706 781 3412 
Q 1013 4119 1484 4856 
L 1984 4856 
z
" id="DejaVuSans-28" transform="scale(0.015625)"/>
      <path d="M 4653 2053 
Q 4381 2053 4226 1822 
Q 4072 1591 4072 1178 
Q 4072 772 4226 539 
Q 4381 306 4653 306 
Q 4919 306 5073 539 
Q 5228 772 5228 1178 
Q 5228 1588 5073 1820 
Q 4919 2053 4653 2053 
z
M 4653 2450 
Q 5147 2450 5437 2106 
Q 5728 1763 5728 1178 
Q 5728 594 5436 251 
Q 5144 -91 4653 -91 
Q 4153 -91 3862 251 
Q 3572 594 3572 1178 
Q 3572 1766 3864 2108 
Q 4156 2450 4653 2450 
z
M 1428 4353 
Q 1159 4353 1004 4120 
Q 850 3888 850 3481 
Q 850 3069 1003 2837 
Q 1156 2606 1428 2606 
Q 1700 2606 1854 2837 
Q 2009 3069 2009 3481 
Q 2009 3884 1853 4118 
Q 1697 4353 1428 4353 
z
M 4250 4750 
L 4750 4750 
L 1831 -91 
L 1331 -91 
L 4250 4750 
z
M 1428 4750 
Q 1922 4750 2215 4408 
Q 2509 4066 2509 3481 
Q 2509 2891 2217 2550 
Q 1925 2209 1428 2209 
Q 931 2209 642 2551 
Q 353 2894 353 3481 
Q 353 4063 643 4406 
Q 934 4750 1428 4750 
z
" id="DejaVuSans-25" transform="scale(0.015625)"/>
      <path d="M 513 4856 
L 1013 4856 
Q 1481 4119 1714 3412 
Q 1947 2706 1947 2009 
Q 1947 1309 1714 600 
Q 1481 -109 1013 -844 
L 513 -844 
Q 928 -128 1133 580 
Q 1338 1288 1338 2009 
Q 1338 2731 1133 3434 
Q 928 4138 513 4856 
z
" id="DejaVuSans-29" transform="scale(0.015625)"/>
     </defs>
     <use xlink:href="#DejaVuSans-50"/>
     <use x="56.677734" xlink:href="#DejaVuSans-65"/>
     <use x="118.201172" xlink:href="#DejaVuSans-72"/>
     <use x="159.314453" xlink:href="#DejaVuSans-20"/>
     <use x="191.101562" xlink:href="#DejaVuSans-66"/>
     <use x="226.306641" xlink:href="#DejaVuSans-69"/>
     <use x="254.089844" xlink:href="#DejaVuSans-6c"/>
     <use x="281.873047" xlink:href="#DejaVuSans-65"/>
     <use x="343.396484" xlink:href="#DejaVuSans-2c"/>
     <use x="375.183594" xlink:href="#DejaVuSans-20"/>
     <use x="406.970703" xlink:href="#DejaVuSans-74"/>
     <use x="446.179688" xlink:href="#DejaVuSans-65"/>
     <use x="507.703125" xlink:href="#DejaVuSans-73"/>
     <use x="559.802734" xlink:href="#DejaVuSans-74"/>
     <use x="599.011719" xlink:href="#DejaVuSans-65"/>
     <use x="660.535156" xlink:href="#DejaVuSans-64"/>
     <use x="724.011719" xlink:href="#DejaVuSans-20"/>
     <use x="755.798828" xlink:href="#DejaVuSans-6f"/>
     <use x="816.980469" xlink:href="#DejaVuSans-6e"/>
     <use x="880.359375" xlink:href="#DejaVuSans-20"/>
     <use x="912.146484" xlink:href="#DejaVuSans-69"/>
     <use x="939.929688" xlink:href="#DejaVuSans-6e"/>
     <use x="1003.308594" xlink:href="#DejaVuSans-69"/>
     <use x="1031.091797" xlink:href="#DejaVuSans-74"/>
     <use x="1070.300781" xlink:href="#DejaVuSans-69"/>
     <use x="1098.083984" xlink:href="#DejaVuSans-61"/>
     <use x="1159.363281" xlink:href="#DejaVuSans-6c"/>
     <use x="1187.146484" xlink:href="#DejaVuSans-73"/>
     <use x="1239.246094" xlink:href="#DejaVuSans-20"/>
     <use x="1271.033203" xlink:href="#DejaVuSans-2d"/>
     <use x="1307.117188" xlink:href="#DejaVuSans-20"/>
     <use x="1338.904297" xlink:href="#DejaVuSans-58"/>
     <use x="1407.410156" xlink:href="#DejaVuSans-47"/>
     <use x="1484.900391" xlink:href="#DejaVuSans-42"/>
     <use x="1553.503906" xlink:href="#DejaVuSans-6f"/>
     <use x="1614.685547" xlink:href="#DejaVuSans-6f"/>
     <use x="1675.867188" xlink:href="#DejaVuSans-73"/>
     <use x="1727.966797" xlink:href="#DejaVuSans-74"/>
     <use x="1767.175781" xlink:href="#DejaVuSans-3a"/>
     <use x="1800.867188" xlink:href="#DejaVuSans-20"/>
     <use x="1832.654297" xlink:href="#DejaVuSans-66"/>
     <use x="1867.859375" xlink:href="#DejaVuSans-65"/>
     <use x="1929.382812" xlink:href="#DejaVuSans-61"/>
     <use x="1990.662109" xlink:href="#DejaVuSans-74"/>
     <use x="2029.871094" xlink:href="#DejaVuSans-75"/>
     <use x="2093.25" xlink:href="#DejaVuSans-72"/>
     <use x="2132.113281" xlink:href="#DejaVuSans-65"/>
     <use x="2193.636719" xlink:href="#DejaVuSans-20"/>
     <use x="2225.423828" xlink:href="#DejaVuSans-76"/>
     <use x="2284.603516" xlink:href="#DejaVuSans-65"/>
     <use x="2346.126953" xlink:href="#DejaVuSans-63"/>
     <use x="2401.107422" xlink:href="#DejaVuSans-74"/>
     <use x="2440.316406" xlink:href="#DejaVuSans-6f"/>
     <use x="2501.498047" xlink:href="#DejaVuSans-72"/>
     <use x="2542.611328" xlink:href="#DejaVuSans-73"/>
     <use x="2594.710938" xlink:href="#DejaVuSans-20"/>
     <use x="2626.498047" xlink:href="#DejaVuSans-28"/>
     <use x="2665.511719" xlink:href="#DejaVuSans-61"/>
     <use x="2726.791016" xlink:href="#DejaVuSans-76"/>
     <use x="2785.970703" xlink:href="#DejaVuSans-67"/>
     <use x="2849.447266" xlink:href="#DejaVuSans-20"/>
     <use x="2881.234375" xlink:href="#DejaVuSans-61"/>
     <use x="2942.513672" xlink:href="#DejaVuSans-63"/>
     <use x="2997.494141" xlink:href="#DejaVuSans-63"/>
     <use x="3052.474609" xlink:href="#DejaVuSans-2e"/>
     <use x="3084.261719" xlink:href="#DejaVuSans-3a"/>
     <use x="3117.953125" xlink:href="#DejaVuSans-20"/>
     <use x="3149.740234" xlink:href="#DejaVuSans-35"/>
     <use x="3213.363281" xlink:href="#DejaVuSans-36"/>
     <use x="3276.986328" xlink:href="#DejaVuSans-2e"/>
     <use x="3308.773438" xlink:href="#DejaVuSans-37"/>
     <use x="3372.396484" xlink:href="#DejaVuSans-25"/>
     <use x="3467.416016" xlink:href="#DejaVuSans-29"/>
    </g>
   </g>
  </g>
 </g>
 <defs>
  <clipPath id="pd8d3534a49">
   <rect height="217.44" width="1004.4" x="162" y="34.56"/>
  </clipPath>
 </defs>
</svg>
