<?xml version="1.0" encoding="utf-8" standalone="no"?>
<!DOCTYPE svg PUBLIC "-//W3C//DTD SVG 1.1//EN"
  "http://www.w3.org/Graphics/SVG/1.1/DTD/svg11.dtd">
<svg height="288pt" version="1.1" viewBox="0 0 432 288" width="432pt" xmlns="http://www.w3.org/2000/svg" xmlns:xlink="http://www.w3.org/1999/xlink">
 <metadata>
  <rdf:RDF xmlns:cc="http://creativecommons.org/ns#" xmlns:dc="http://purl.org/dc/elements/1.1/" xmlns:rdf="http://www.w3.org/1999/02/22-rdf-syntax-ns#">
   <cc:Work>
    <dc:type rdf:resource="http://purl.org/dc/dcmitype/StillImage"/>
    <dc:date>2022-06-19T22:13:27.379555</dc:date>
    <dc:format>image/svg+xml</dc:format>
    <dc:creator>
     <cc:Agent>
      <dc:title>Matplotlib v3.4.3, https://matplotlib.org/</dc:title>
     </cc:Agent>
    </dc:creator>
   </cc:Work>
  </rdf:RDF>
 </metadata>
 <defs>
  <style type="text/css">*{stroke-linecap:butt;stroke-linejoin:round;}</style>
 </defs>
 <g id="figure_1">
  <g id="patch_1">
   <path d="M 0 288 
L 432 288 
L 432 0 
L 0 0 
z
" style="fill:none;"/>
  </g>
  <g id="axes_1">
   <g id="patch_2">
    <path d="M 54 252 
L 388.8 252 
L 388.8 34.56 
L 54 34.56 
z
" style="fill:#ffffff;"/>
   </g>
   <g id="matplotlib.axis_1">
    <g id="xtick_1">
     <g id="line2d_1">
      <path clip-path="url(#pe6e5892d7a)" d="M 54 252 
L 54 34.56 
" style="fill:none;stroke:#b0b0b0;stroke-linecap:square;stroke-width:0.8;"/>
     </g>
     <g id="line2d_2">
      <defs>
       <path d="M 0 0 
L 0 3.5 
" id="m5ce98870f7" style="stroke:#000000;stroke-width:0.8;"/>
      </defs>
      <g>
       <use style="stroke:#000000;stroke-width:0.8;" x="54" xlink:href="#m5ce98870f7" y="252"/>
      </g>
     </g>
     <g id="text_1">
      <!-- 0.0 -->
      <g transform="translate(46.048437 266.598437)scale(0.1 -0.1)">
       <defs>
        <path d="M 2034 4250 
Q 1547 4250 1301 3770 
Q 1056 3291 1056 2328 
Q 1056 1369 1301 889 
Q 1547 409 2034 409 
Q 2525 409 2770 889 
Q 3016 1369 3016 2328 
Q 3016 3291 2770 3770 
Q 2525 4250 2034 4250 
z
M 2034 4750 
Q 2819 4750 3233 4129 
Q 3647 3509 3647 2328 
Q 3647 1150 3233 529 
Q 2819 -91 2034 -91 
Q 1250 -91 836 529 
Q 422 1150 422 2328 
Q 422 3509 836 4129 
Q 1250 4750 2034 4750 
z
" id="DejaVuSans-30" transform="scale(0.015625)"/>
        <path d="M 684 794 
L 1344 794 
L 1344 0 
L 684 0 
L 684 794 
z
" id="DejaVuSans-2e" transform="scale(0.015625)"/>
       </defs>
       <use xlink:href="#DejaVuSans-30"/>
       <use x="63.623047" xlink:href="#DejaVuSans-2e"/>
       <use x="95.410156" xlink:href="#DejaVuSans-30"/>
      </g>
     </g>
    </g>
    <g id="xtick_2">
     <g id="line2d_3">
      <path clip-path="url(#pe6e5892d7a)" d="M 120.96 252 
L 120.96 34.56 
" style="fill:none;stroke:#b0b0b0;stroke-linecap:square;stroke-width:0.8;"/>
     </g>
     <g id="line2d_4">
      <g>
       <use style="stroke:#000000;stroke-width:0.8;" x="120.96" xlink:href="#m5ce98870f7" y="252"/>
      </g>
     </g>
     <g id="text_2">
      <!-- 0.2 -->
      <g transform="translate(113.008438 266.598437)scale(0.1 -0.1)">
       <defs>
        <path d="M 1228 531 
L 3431 531 
L 3431 0 
L 469 0 
L 469 531 
Q 828 903 1448 1529 
Q 2069 2156 2228 2338 
Q 2531 2678 2651 2914 
Q 2772 3150 2772 3378 
Q 2772 3750 2511 3984 
Q 2250 4219 1831 4219 
Q 1534 4219 1204 4116 
Q 875 4013 500 3803 
L 500 4441 
Q 881 4594 1212 4672 
Q 1544 4750 1819 4750 
Q 2544 4750 2975 4387 
Q 3406 4025 3406 3419 
Q 3406 3131 3298 2873 
Q 3191 2616 2906 2266 
Q 2828 2175 2409 1742 
Q 1991 1309 1228 531 
z
" id="DejaVuSans-32" transform="scale(0.015625)"/>
       </defs>
       <use xlink:href="#DejaVuSans-30"/>
       <use x="63.623047" xlink:href="#DejaVuSans-2e"/>
       <use x="95.410156" xlink:href="#DejaVuSans-32"/>
      </g>
     </g>
    </g>
    <g id="xtick_3">
     <g id="line2d_5">
      <path clip-path="url(#pe6e5892d7a)" d="M 187.92 252 
L 187.92 34.56 
" style="fill:none;stroke:#b0b0b0;stroke-linecap:square;stroke-width:0.8;"/>
     </g>
     <g id="line2d_6">
      <g>
       <use style="stroke:#000000;stroke-width:0.8;" x="187.92" xlink:href="#m5ce98870f7" y="252"/>
      </g>
     </g>
     <g id="text_3">
      <!-- 0.4 -->
      <g transform="translate(179.968438 266.598437)scale(0.1 -0.1)">
       <defs>
        <path d="M 2419 4116 
L 825 1625 
L 2419 1625 
L 2419 4116 
z
M 2253 4666 
L 3047 4666 
L 3047 1625 
L 3713 1625 
L 3713 1100 
L 3047 1100 
L 3047 0 
L 2419 0 
L 2419 1100 
L 313 1100 
L 313 1709 
L 2253 4666 
z
" id="DejaVuSans-34" transform="scale(0.015625)"/>
       </defs>
       <use xlink:href="#DejaVuSans-30"/>
       <use x="63.623047" xlink:href="#DejaVuSans-2e"/>
       <use x="95.410156" xlink:href="#DejaVuSans-34"/>
      </g>
     </g>
    </g>
    <g id="xtick_4">
     <g id="line2d_7">
      <path clip-path="url(#pe6e5892d7a)" d="M 254.88 252 
L 254.88 34.56 
" style="fill:none;stroke:#b0b0b0;stroke-linecap:square;stroke-width:0.8;"/>
     </g>
     <g id="line2d_8">
      <g>
       <use style="stroke:#000000;stroke-width:0.8;" x="254.88" xlink:href="#m5ce98870f7" y="252"/>
      </g>
     </g>
     <g id="text_4">
      <!-- 0.6 -->
      <g transform="translate(246.928438 266.598437)scale(0.1 -0.1)">
       <defs>
        <path d="M 2113 2584 
Q 1688 2584 1439 2293 
Q 1191 2003 1191 1497 
Q 1191 994 1439 701 
Q 1688 409 2113 409 
Q 2538 409 2786 701 
Q 3034 994 3034 1497 
Q 3034 2003 2786 2293 
Q 2538 2584 2113 2584 
z
M 3366 4563 
L 3366 3988 
Q 3128 4100 2886 4159 
Q 2644 4219 2406 4219 
Q 1781 4219 1451 3797 
Q 1122 3375 1075 2522 
Q 1259 2794 1537 2939 
Q 1816 3084 2150 3084 
Q 2853 3084 3261 2657 
Q 3669 2231 3669 1497 
Q 3669 778 3244 343 
Q 2819 -91 2113 -91 
Q 1303 -91 875 529 
Q 447 1150 447 2328 
Q 447 3434 972 4092 
Q 1497 4750 2381 4750 
Q 2619 4750 2861 4703 
Q 3103 4656 3366 4563 
z
" id="DejaVuSans-36" transform="scale(0.015625)"/>
       </defs>
       <use xlink:href="#DejaVuSans-30"/>
       <use x="63.623047" xlink:href="#DejaVuSans-2e"/>
       <use x="95.410156" xlink:href="#DejaVuSans-36"/>
      </g>
     </g>
    </g>
    <g id="xtick_5">
     <g id="line2d_9">
      <path clip-path="url(#pe6e5892d7a)" d="M 321.84 252 
L 321.84 34.56 
" style="fill:none;stroke:#b0b0b0;stroke-linecap:square;stroke-width:0.8;"/>
     </g>
     <g id="line2d_10">
      <g>
       <use style="stroke:#000000;stroke-width:0.8;" x="321.84" xlink:href="#m5ce98870f7" y="252"/>
      </g>
     </g>
     <g id="text_5">
      <!-- 0.8 -->
      <g transform="translate(313.888438 266.598437)scale(0.1 -0.1)">
       <defs>
        <path d="M 2034 2216 
Q 1584 2216 1326 1975 
Q 1069 1734 1069 1313 
Q 1069 891 1326 650 
Q 1584 409 2034 409 
Q 2484 409 2743 651 
Q 3003 894 3003 1313 
Q 3003 1734 2745 1975 
Q 2488 2216 2034 2216 
z
M 1403 2484 
Q 997 2584 770 2862 
Q 544 3141 544 3541 
Q 544 4100 942 4425 
Q 1341 4750 2034 4750 
Q 2731 4750 3128 4425 
Q 3525 4100 3525 3541 
Q 3525 3141 3298 2862 
Q 3072 2584 2669 2484 
Q 3125 2378 3379 2068 
Q 3634 1759 3634 1313 
Q 3634 634 3220 271 
Q 2806 -91 2034 -91 
Q 1263 -91 848 271 
Q 434 634 434 1313 
Q 434 1759 690 2068 
Q 947 2378 1403 2484 
z
M 1172 3481 
Q 1172 3119 1398 2916 
Q 1625 2713 2034 2713 
Q 2441 2713 2670 2916 
Q 2900 3119 2900 3481 
Q 2900 3844 2670 4047 
Q 2441 4250 2034 4250 
Q 1625 4250 1398 4047 
Q 1172 3844 1172 3481 
z
" id="DejaVuSans-38" transform="scale(0.015625)"/>
       </defs>
       <use xlink:href="#DejaVuSans-30"/>
       <use x="63.623047" xlink:href="#DejaVuSans-2e"/>
       <use x="95.410156" xlink:href="#DejaVuSans-38"/>
      </g>
     </g>
    </g>
    <g id="xtick_6">
     <g id="line2d_11">
      <path clip-path="url(#pe6e5892d7a)" d="M 388.8 252 
L 388.8 34.56 
" style="fill:none;stroke:#b0b0b0;stroke-linecap:square;stroke-width:0.8;"/>
     </g>
     <g id="line2d_12">
      <g>
       <use style="stroke:#000000;stroke-width:0.8;" x="388.8" xlink:href="#m5ce98870f7" y="252"/>
      </g>
     </g>
     <g id="text_6">
      <!-- 1.0 -->
      <g transform="translate(380.848437 266.598437)scale(0.1 -0.1)">
       <defs>
        <path d="M 794 531 
L 1825 531 
L 1825 4091 
L 703 3866 
L 703 4441 
L 1819 4666 
L 2450 4666 
L 2450 531 
L 3481 531 
L 3481 0 
L 794 0 
L 794 531 
z
" id="DejaVuSans-31" transform="scale(0.015625)"/>
       </defs>
       <use xlink:href="#DejaVuSans-31"/>
       <use x="63.623047" xlink:href="#DejaVuSans-2e"/>
       <use x="95.410156" xlink:href="#DejaVuSans-30"/>
      </g>
     </g>
    </g>
    <g id="text_7">
     <!-- Recall -->
     <g transform="translate(206.482812 280.276563)scale(0.1 -0.1)">
      <defs>
       <path d="M 2841 2188 
Q 3044 2119 3236 1894 
Q 3428 1669 3622 1275 
L 4263 0 
L 3584 0 
L 2988 1197 
Q 2756 1666 2539 1819 
Q 2322 1972 1947 1972 
L 1259 1972 
L 1259 0 
L 628 0 
L 628 4666 
L 2053 4666 
Q 2853 4666 3247 4331 
Q 3641 3997 3641 3322 
Q 3641 2881 3436 2590 
Q 3231 2300 2841 2188 
z
M 1259 4147 
L 1259 2491 
L 2053 2491 
Q 2509 2491 2742 2702 
Q 2975 2913 2975 3322 
Q 2975 3731 2742 3939 
Q 2509 4147 2053 4147 
L 1259 4147 
z
" id="DejaVuSans-52" transform="scale(0.015625)"/>
       <path d="M 3597 1894 
L 3597 1613 
L 953 1613 
Q 991 1019 1311 708 
Q 1631 397 2203 397 
Q 2534 397 2845 478 
Q 3156 559 3463 722 
L 3463 178 
Q 3153 47 2828 -22 
Q 2503 -91 2169 -91 
Q 1331 -91 842 396 
Q 353 884 353 1716 
Q 353 2575 817 3079 
Q 1281 3584 2069 3584 
Q 2775 3584 3186 3129 
Q 3597 2675 3597 1894 
z
M 3022 2063 
Q 3016 2534 2758 2815 
Q 2500 3097 2075 3097 
Q 1594 3097 1305 2825 
Q 1016 2553 972 2059 
L 3022 2063 
z
" id="DejaVuSans-65" transform="scale(0.015625)"/>
       <path d="M 3122 3366 
L 3122 2828 
Q 2878 2963 2633 3030 
Q 2388 3097 2138 3097 
Q 1578 3097 1268 2742 
Q 959 2388 959 1747 
Q 959 1106 1268 751 
Q 1578 397 2138 397 
Q 2388 397 2633 464 
Q 2878 531 3122 666 
L 3122 134 
Q 2881 22 2623 -34 
Q 2366 -91 2075 -91 
Q 1284 -91 818 406 
Q 353 903 353 1747 
Q 353 2603 823 3093 
Q 1294 3584 2113 3584 
Q 2378 3584 2631 3529 
Q 2884 3475 3122 3366 
z
" id="DejaVuSans-63" transform="scale(0.015625)"/>
       <path d="M 2194 1759 
Q 1497 1759 1228 1600 
Q 959 1441 959 1056 
Q 959 750 1161 570 
Q 1363 391 1709 391 
Q 2188 391 2477 730 
Q 2766 1069 2766 1631 
L 2766 1759 
L 2194 1759 
z
M 3341 1997 
L 3341 0 
L 2766 0 
L 2766 531 
Q 2569 213 2275 61 
Q 1981 -91 1556 -91 
Q 1019 -91 701 211 
Q 384 513 384 1019 
Q 384 1609 779 1909 
Q 1175 2209 1959 2209 
L 2766 2209 
L 2766 2266 
Q 2766 2663 2505 2880 
Q 2244 3097 1772 3097 
Q 1472 3097 1187 3025 
Q 903 2953 641 2809 
L 641 3341 
Q 956 3463 1253 3523 
Q 1550 3584 1831 3584 
Q 2591 3584 2966 3190 
Q 3341 2797 3341 1997 
z
" id="DejaVuSans-61" transform="scale(0.015625)"/>
       <path d="M 603 4863 
L 1178 4863 
L 1178 0 
L 603 0 
L 603 4863 
z
" id="DejaVuSans-6c" transform="scale(0.015625)"/>
      </defs>
      <use xlink:href="#DejaVuSans-52"/>
      <use x="64.982422" xlink:href="#DejaVuSans-65"/>
      <use x="126.505859" xlink:href="#DejaVuSans-63"/>
      <use x="181.486328" xlink:href="#DejaVuSans-61"/>
      <use x="242.765625" xlink:href="#DejaVuSans-6c"/>
      <use x="270.548828" xlink:href="#DejaVuSans-6c"/>
     </g>
    </g>
   </g>
   <g id="matplotlib.axis_2">
    <g id="ytick_1">
     <g id="line2d_13">
      <path clip-path="url(#pe6e5892d7a)" d="M 54 252 
L 388.8 252 
" style="fill:none;stroke:#b0b0b0;stroke-linecap:square;stroke-width:0.8;"/>
     </g>
     <g id="line2d_14">
      <defs>
       <path d="M 0 0 
L -3.5 0 
" id="m469326a896" style="stroke:#000000;stroke-width:0.8;"/>
      </defs>
      <g>
       <use style="stroke:#000000;stroke-width:0.8;" x="54" xlink:href="#m469326a896" y="252"/>
      </g>
     </g>
     <g id="text_8">
      <!-- 0.0 -->
      <g transform="translate(31.096875 255.799219)scale(0.1 -0.1)">
       <use xlink:href="#DejaVuSans-30"/>
       <use x="63.623047" xlink:href="#DejaVuSans-2e"/>
       <use x="95.410156" xlink:href="#DejaVuSans-30"/>
      </g>
     </g>
    </g>
    <g id="ytick_2">
     <g id="line2d_15">
      <path clip-path="url(#pe6e5892d7a)" d="M 54 208.512 
L 388.8 208.512 
" style="fill:none;stroke:#b0b0b0;stroke-linecap:square;stroke-width:0.8;"/>
     </g>
     <g id="line2d_16">
      <g>
       <use style="stroke:#000000;stroke-width:0.8;" x="54" xlink:href="#m469326a896" y="208.512"/>
      </g>
     </g>
     <g id="text_9">
      <!-- 0.2 -->
      <g transform="translate(31.096875 212.311219)scale(0.1 -0.1)">
       <use xlink:href="#DejaVuSans-30"/>
       <use x="63.623047" xlink:href="#DejaVuSans-2e"/>
       <use x="95.410156" xlink:href="#DejaVuSans-32"/>
      </g>
     </g>
    </g>
    <g id="ytick_3">
     <g id="line2d_17">
      <path clip-path="url(#pe6e5892d7a)" d="M 54 165.024 
L 388.8 165.024 
" style="fill:none;stroke:#b0b0b0;stroke-linecap:square;stroke-width:0.8;"/>
     </g>
     <g id="line2d_18">
      <g>
       <use style="stroke:#000000;stroke-width:0.8;" x="54" xlink:href="#m469326a896" y="165.024"/>
      </g>
     </g>
     <g id="text_10">
      <!-- 0.4 -->
      <g transform="translate(31.096875 168.823219)scale(0.1 -0.1)">
       <use xlink:href="#DejaVuSans-30"/>
       <use x="63.623047" xlink:href="#DejaVuSans-2e"/>
       <use x="95.410156" xlink:href="#DejaVuSans-34"/>
      </g>
     </g>
    </g>
    <g id="ytick_4">
     <g id="line2d_19">
      <path clip-path="url(#pe6e5892d7a)" d="M 54 121.536 
L 388.8 121.536 
" style="fill:none;stroke:#b0b0b0;stroke-linecap:square;stroke-width:0.8;"/>
     </g>
     <g id="line2d_20">
      <g>
       <use style="stroke:#000000;stroke-width:0.8;" x="54" xlink:href="#m469326a896" y="121.536"/>
      </g>
     </g>
     <g id="text_11">
      <!-- 0.6 -->
      <g transform="translate(31.096875 125.335219)scale(0.1 -0.1)">
       <use xlink:href="#DejaVuSans-30"/>
       <use x="63.623047" xlink:href="#DejaVuSans-2e"/>
       <use x="95.410156" xlink:href="#DejaVuSans-36"/>
      </g>
     </g>
    </g>
    <g id="ytick_5">
     <g id="line2d_21">
      <path clip-path="url(#pe6e5892d7a)" d="M 54 78.048 
L 388.8 78.048 
" style="fill:none;stroke:#b0b0b0;stroke-linecap:square;stroke-width:0.8;"/>
     </g>
     <g id="line2d_22">
      <g>
       <use style="stroke:#000000;stroke-width:0.8;" x="54" xlink:href="#m469326a896" y="78.048"/>
      </g>
     </g>
     <g id="text_12">
      <!-- 0.8 -->
      <g transform="translate(31.096875 81.847219)scale(0.1 -0.1)">
       <use xlink:href="#DejaVuSans-30"/>
       <use x="63.623047" xlink:href="#DejaVuSans-2e"/>
       <use x="95.410156" xlink:href="#DejaVuSans-38"/>
      </g>
     </g>
    </g>
    <g id="ytick_6">
     <g id="line2d_23">
      <path clip-path="url(#pe6e5892d7a)" d="M 54 34.56 
L 388.8 34.56 
" style="fill:none;stroke:#b0b0b0;stroke-linecap:square;stroke-width:0.8;"/>
     </g>
     <g id="line2d_24">
      <g>
       <use style="stroke:#000000;stroke-width:0.8;" x="54" xlink:href="#m469326a896" y="34.56"/>
      </g>
     </g>
     <g id="text_13">
      <!-- 1.0 -->
      <g transform="translate(31.096875 38.359219)scale(0.1 -0.1)">
       <use xlink:href="#DejaVuSans-31"/>
       <use x="63.623047" xlink:href="#DejaVuSans-2e"/>
       <use x="95.410156" xlink:href="#DejaVuSans-30"/>
      </g>
     </g>
    </g>
    <g id="text_14">
     <!-- Precision -->
     <g transform="translate(25.017187 165.587031)rotate(-90)scale(0.1 -0.1)">
      <defs>
       <path d="M 1259 4147 
L 1259 2394 
L 2053 2394 
Q 2494 2394 2734 2622 
Q 2975 2850 2975 3272 
Q 2975 3691 2734 3919 
Q 2494 4147 2053 4147 
L 1259 4147 
z
M 628 4666 
L 2053 4666 
Q 2838 4666 3239 4311 
Q 3641 3956 3641 3272 
Q 3641 2581 3239 2228 
Q 2838 1875 2053 1875 
L 1259 1875 
L 1259 0 
L 628 0 
L 628 4666 
z
" id="DejaVuSans-50" transform="scale(0.015625)"/>
       <path d="M 2631 2963 
Q 2534 3019 2420 3045 
Q 2306 3072 2169 3072 
Q 1681 3072 1420 2755 
Q 1159 2438 1159 1844 
L 1159 0 
L 581 0 
L 581 3500 
L 1159 3500 
L 1159 2956 
Q 1341 3275 1631 3429 
Q 1922 3584 2338 3584 
Q 2397 3584 2469 3576 
Q 2541 3569 2628 3553 
L 2631 2963 
z
" id="DejaVuSans-72" transform="scale(0.015625)"/>
       <path d="M 603 3500 
L 1178 3500 
L 1178 0 
L 603 0 
L 603 3500 
z
M 603 4863 
L 1178 4863 
L 1178 4134 
L 603 4134 
L 603 4863 
z
" id="DejaVuSans-69" transform="scale(0.015625)"/>
       <path d="M 2834 3397 
L 2834 2853 
Q 2591 2978 2328 3040 
Q 2066 3103 1784 3103 
Q 1356 3103 1142 2972 
Q 928 2841 928 2578 
Q 928 2378 1081 2264 
Q 1234 2150 1697 2047 
L 1894 2003 
Q 2506 1872 2764 1633 
Q 3022 1394 3022 966 
Q 3022 478 2636 193 
Q 2250 -91 1575 -91 
Q 1294 -91 989 -36 
Q 684 19 347 128 
L 347 722 
Q 666 556 975 473 
Q 1284 391 1588 391 
Q 1994 391 2212 530 
Q 2431 669 2431 922 
Q 2431 1156 2273 1281 
Q 2116 1406 1581 1522 
L 1381 1569 
Q 847 1681 609 1914 
Q 372 2147 372 2553 
Q 372 3047 722 3315 
Q 1072 3584 1716 3584 
Q 2034 3584 2315 3537 
Q 2597 3491 2834 3397 
z
" id="DejaVuSans-73" transform="scale(0.015625)"/>
       <path d="M 1959 3097 
Q 1497 3097 1228 2736 
Q 959 2375 959 1747 
Q 959 1119 1226 758 
Q 1494 397 1959 397 
Q 2419 397 2687 759 
Q 2956 1122 2956 1747 
Q 2956 2369 2687 2733 
Q 2419 3097 1959 3097 
z
M 1959 3584 
Q 2709 3584 3137 3096 
Q 3566 2609 3566 1747 
Q 3566 888 3137 398 
Q 2709 -91 1959 -91 
Q 1206 -91 779 398 
Q 353 888 353 1747 
Q 353 2609 779 3096 
Q 1206 3584 1959 3584 
z
" id="DejaVuSans-6f" transform="scale(0.015625)"/>
       <path d="M 3513 2113 
L 3513 0 
L 2938 0 
L 2938 2094 
Q 2938 2591 2744 2837 
Q 2550 3084 2163 3084 
Q 1697 3084 1428 2787 
Q 1159 2491 1159 1978 
L 1159 0 
L 581 0 
L 581 3500 
L 1159 3500 
L 1159 2956 
Q 1366 3272 1645 3428 
Q 1925 3584 2291 3584 
Q 2894 3584 3203 3211 
Q 3513 2838 3513 2113 
z
" id="DejaVuSans-6e" transform="scale(0.015625)"/>
      </defs>
      <use xlink:href="#DejaVuSans-50"/>
      <use x="58.552734" xlink:href="#DejaVuSans-72"/>
      <use x="97.416016" xlink:href="#DejaVuSans-65"/>
      <use x="158.939453" xlink:href="#DejaVuSans-63"/>
      <use x="213.919922" xlink:href="#DejaVuSans-69"/>
      <use x="241.703125" xlink:href="#DejaVuSans-73"/>
      <use x="293.802734" xlink:href="#DejaVuSans-69"/>
      <use x="321.585938" xlink:href="#DejaVuSans-6f"/>
      <use x="382.767578" xlink:href="#DejaVuSans-6e"/>
     </g>
    </g>
   </g>
   <g id="line2d_25">
    <path clip-path="url(#pe6e5892d7a)" d="M 388.8 138.044687 
L 388.287289 138.127807 
L 388.287289 138.03627 
L 388.287289 136.926234 
L 387.774579 137.009391 
L 387.774579 136.915902 
L 387.774579 136.351765 
L 387.261868 136.434996 
L 387.261868 136.340426 
L 387.261868 136.2457 
L 386.749158 136.329049 
L 386.749158 136.234159 
L 386.749158 135.661533 
L 386.236447 135.74495 
L 386.236447 135.648951 
L 386.236447 134.972492 
L 385.723737 135.05596 
L 385.723737 134.958669 
L 385.723737 134.861216 
L 384.185605 135.112387 
L 384.185605 135.014737 
L 384.185605 134.720804 
L 383.160184 134.790529 
L 383.160184 134.097568 
L 382.134763 134.1663 
L 382.134763 133.36266 
L 381.109342 133.430154 
L 381.109342 133.023396 
L 380.08392 133.090421 
L 380.08392 132.782897 
L 379.57121 132.867645 
L 379.57121 132.764767 
L 379.57121 132.351473 
L 378.033078 132.60636 
L 378.033078 132.502539 
L 378.033078 132.085445 
L 377.520368 132.17062 
L 377.520368 132.065874 
L 377.520368 131.750535 
L 377.007657 131.835789 
L 377.007657 131.73029 
L 377.007657 131.2 
L 376.494946 131.285296 
L 376.494946 131.178657 
L 376.494946 131.07183 
L 375.982236 131.157239 
L 375.982236 131.050204 
L 375.982236 130.942979 
L 375.469525 131.0285 
L 375.469525 130.921066 
L 375.469525 130.163646 
L 372.393262 130.569928 
L 372.393262 130.241443 
L 371.367841 130.414309 
L 371.367841 130.304376 
L 371.367841 130.194244 
L 367.266156 130.781168 
L 367.266156 130.670466 
L 366.240735 130.735385 
L 366.240735 130.624235 
L 365.728025 130.712367 
L 365.728025 130.600992 
L 365.728025 130.265635 
L 365.215314 130.353843 
L 365.215314 130.241624 
L 365.215314 129.903719 
L 364.702603 129.992 
L 364.702603 129.76564 
L 364.189893 129.854039 
L 364.189893 129.512849 
L 363.164472 129.69 
L 363.164472 129.575798 
L 361.62634 129.842697 
L 361.62634 129.72821 
L 360.600919 129.90693 
L 360.600919 129.79218 
L 358.037366 130.241813 
L 358.037366 130.12673 
L 355.986524 130.489412 
L 355.986524 130.258403 
L 355.473813 130.349458 
L 355.473813 130.117521 
L 353.935681 130.391587 
L 353.935681 130.041802 
L 352.91026 130.225245 
L 352.91026 129.873295 
L 352.39755 129.965207 
L 352.39755 129.611141 
L 351.884839 129.703156 
L 351.884839 129.584651 
L 350.346708 129.861691 
L 350.346708 129.623836 
L 348.808576 129.902344 
L 348.808576 129.782991 
L 346.245023 130.250688 
L 346.245023 129.649753 
L 345.732312 129.743715 
L 345.732312 129.622789 
L 345.219602 129.716911 
L 345.219602 129.595719 
L 343.16876 129.97397 
L 343.16876 129.85243 
L 342.656049 129.947438 
L 342.656049 129.825629 
L 341.630628 130.01616 
L 341.630628 129.894054 
L 341.117917 129.989579 
L 341.117917 129.744578 
L 340.605207 129.840241 
L 340.605207 129.594199 
L 339.067075 129.882182 
L 339.067075 129.758706 
L 338.554364 129.855061 
L 338.554364 129.731307 
L 338.041654 129.82783 
L 338.041654 129.079837 
L 337.528943 129.176384 
L 337.528943 128.924954 
L 337.016233 129.021639 
L 337.016233 128.895508 
L 336.503522 128.992361 
L 336.503522 128.739259 
L 335.990812 128.836251 
L 335.990812 128.582043 
L 334.965391 128.776505 
L 334.965391 128.264673 
L 333.939969 128.459688 
L 333.939969 128.331 
L 332.914548 128.526764 
L 332.914548 128.397743 
L 332.401838 128.4959 
L 332.401838 128.366576 
L 331.889127 128.464906 
L 331.889127 128.335278 
L 331.376417 128.433782 
L 331.376417 128.303849 
L 329.325574 128.69981 
L 329.325574 128.438857 
L 328.812864 128.538305 
L 328.812864 128.012936 
L 328.300153 128.11246 
L 328.300153 127.980384 
L 327.787443 128.080085 
L 327.787443 127.682056 
L 326.762021 127.881888 
L 326.762021 127.614968 
L 323.685758 128.219221 
L 323.685758 127.545767 
L 323.173047 127.647059 
L 323.173047 127.375546 
L 322.147626 127.578643 
L 322.147626 127.305789 
L 321.634916 127.407596 
L 321.634916 127.270681 
L 319.071363 127.782895 
L 319.071363 127.369756 
L 318.558652 127.472764 
L 318.558652 127.3344 
L 318.045942 127.437597 
L 318.045942 127.298886 
L 317.020521 127.505893 
L 317.020521 126.807273 
L 316.50781 126.910921 
L 316.50781 126.770214 
L 315.9951 126.874054 
L 315.9951 126.591603 
L 315.482389 126.695593 
L 315.482389 126.553846 
L 314.969678 126.658029 
L 314.969678 126.515918 
L 314.456968 126.620295 
L 314.456968 126.477818 
L 311.893415 127.003063 
L 311.893415 125.995023 
L 311.380704 126.100484 
L 311.380704 125.663333 
L 310.867994 125.768899 
L 310.867994 125.328558 
L 310.355283 125.434226 
L 310.355283 124.693208 
L 309.329862 124.904789 
L 309.329862 124.755441 
L 308.817152 124.861553 
L 308.817152 124.561698 
L 308.304441 124.667957 
L 308.304441 124.36658 
L 306.766309 124.686556 
L 306.766309 124.231323 
L 306.253599 124.338329 
L 306.253599 123.879665 
L 305.740888 123.986763 
L 305.740888 123.833085 
L 305.228178 123.940385 
L 305.228178 123.631807 
L 304.202757 123.846957 
L 304.202757 123.691995 
L 303.690046 123.799903 
L 303.690046 123.644509 
L 302.151914 123.969635 
L 302.151914 123.813691 
L 301.126493 124.031648 
L 301.126493 123.875208 
L 300.613783 123.984529 
L 300.613783 123.827647 
L 298.56294 124.267389 
L 298.56294 123.952 
L 298.05023 124.062497 
L 298.05023 123.904158 
L 297.537519 124.01487 
L 297.537519 122.733417 
L 296.512098 122.95468 
L 296.512098 122.303758 
L 294.461256 122.748593 
L 294.461256 122.584569 
L 293.948545 122.696417 
L 293.948545 122.366981 
L 293.435835 122.47898 
L 293.435835 122.313563 
L 291.384992 122.764159 
L 291.384992 122.598046 
L 290.872282 122.711351 
L 290.872282 122.544742 
L 290.359571 122.658271 
L 290.359571 122.155648 
L 288.82144 122.497373 
L 288.82144 122.32875 
L 288.308729 122.443181 
L 288.308729 122.104471 
L 287.796018 122.219058 
L 287.796018 121.536 
L 287.283308 121.650593 
L 287.283308 121.306209 
L 286.770597 121.420952 
L 286.770597 121.074589 
L 285.745176 121.304681 
L 285.745176 121.130652 
L 285.232466 121.24608 
L 285.232466 120.896471 
L 283.181623 121.360645 
L 283.181623 120.831741 
L 282.668913 120.948324 
L 282.668913 120.770988 
L 282.156202 120.887805 
L 282.156202 120.531522 
L 281.643492 120.64849 
L 281.643492 120.469537 
L 280.61807 120.704262 
L 280.61807 119.801265 
L 280.10536 119.918678 
L 280.10536 119.736497 
L 278.567228 120.090416 
L 278.567228 119.907462 
L 278.054518 120.026 
L 278.054518 119.658384 
L 277.541807 119.777071 
L 277.541807 119.592402 
L 276.516386 119.830588 
L 276.516386 119.645217 
L 274.978254 120.004732 
L 274.978254 119.256884 
L 274.465544 119.377021 
L 274.465544 118.999716 
L 273.952833 119.12 
L 273.952833 118.5497 
L 271.901991 119.033094 
L 271.901991 118.841499 
L 270.363859 119.20741 
L 270.363859 118.628372 
L 269.851149 118.750742 
L 269.851149 118.361693 
L 269.338438 118.484211 
L 269.338438 117.698824 
L 268.825727 117.821267 
L 268.825727 117.623363 
L 267.800306 117.869112 
L 267.800306 117.6704 
L 267.287596 117.793709 
L 267.287596 117.394286 
L 266.262175 117.641552 
L 266.262175 117.239281 
L 264.211332 117.737349 
L 264.211332 117.331722 
L 263.698622 117.456944 
L 263.698622 117.253091 
L 261.647779 117.757317 
L 261.647779 116.933742 
L 257.546095 117.957019 
L 257.546095 117.748554 
L 256.520674 118.008112 
L 256.520674 117.79875 
L 256.007963 117.929014 
L 256.007963 117.718871 
L 255.495253 117.849419 
L 255.495253 117.638491 
L 254.982542 117.769323 
L 254.982542 117.557603 
L 252.418989 118.217361 
L 252.418989 117.57623 
L 251.906279 117.709056 
L 251.906279 117.06135 
L 250.368147 117.461195 
L 250.368147 116.805974 
L 248.830015 117.208483 
L 248.830015 116.767267 
L 248.317305 116.902033 
L 248.317305 116.680197 
L 246.779173 117.086733 
L 246.779173 116.64 
L 246.266462 116.776119 
L 246.266462 116.551495 
L 244.728331 116.962137 
L 244.728331 116.282416 
L 242.164778 116.973807 
L 242.164778 116.744949 
L 241.652067 116.884482 
L 241.652067 116.424123 
L 239.088515 117.127423 
L 239.088515 116.895284 
L 237.550383 117.32263 
L 237.550383 117.08922 
L 236.524962 117.376278 
L 236.524962 117.141742 
L 236.012251 117.285864 
L 236.012251 117.05035 
L 234.474119 117.485272 
L 234.474119 117.248451 
L 232.423277 117.834894 
L 232.423277 117.59659 
L 230.885145 118.041429 
L 230.885145 117.801789 
L 230.372435 117.950968 
L 230.372435 117.468777 
L 229.859724 117.618162 
L 229.859724 117.375596 
L 229.347014 117.525353 
L 229.347014 117.281739 
L 228.834303 117.431869 
L 228.834303 117.1872 
L 228.321593 117.337705 
L 228.321593 117.091971 
L 226.783461 117.546275 
L 226.783461 117.299118 
L 225.75804 117.604428 
L 225.75804 117.106667 
L 225.245329 117.259814 
L 225.245329 117.009368 
L 223.194487 117.626966 
L 223.194487 117.121805 
L 221.143645 117.747273 
L 221.143645 117.492524 
L 219.605513 117.967328 
L 219.605513 117.453793 
L 217.554671 118.0939 
L 217.554671 117.834894 
L 217.04196 117.996279 
L 217.04196 117.736078 
L 216.52925 117.897899 
L 216.52925 116.846118 
L 214.991118 117.333018 
L 214.991118 117.066877 
L 214.478407 117.230257 
L 214.478407 116.424861 
L 213.965697 116.588263 
L 213.965697 116.31744 
L 212.940276 116.645783 
L 212.940276 116.373441 
L 212.427565 116.538387 
L 212.427565 116.264727 
L 211.914855 116.430121 
L 211.914855 115.601792 
L 210.889433 115.933252 
L 210.889433 115.654426 
L 209.351302 116.156041 
L 209.351302 115.875372 
L 208.838591 116.043727 
L 208.838591 115.76166 
L 205.762328 116.78521 
L 205.762328 116.214684 
L 205.249617 116.387315 
L 205.249617 115.811465 
L 204.224196 116.157953 
L 204.224196 114.09974 
L 203.711485 114.272278 
L 203.711485 113.370131 
L 202.686064 113.715789 
L 202.686064 113.411868 
L 202.173354 113.585551 
L 202.173354 113.28 
L 200.635222 113.8048 
L 200.635222 113.187857 
L 199.609801 113.540448 
L 199.609801 112.916757 
L 198.58438 113.271312 
L 198.58438 112.956735 
L 198.071669 113.134909 
L 198.071669 112.818588 
L 197.558959 112.99726 
L 197.558959 112.679176 
L 197.046248 112.858349 
L 197.046248 112.217143 
L 196.533538 112.39649 
L 196.533538 112.073333 
L 194.482695 112.797757 
L 194.482695 112.144225 
L 193.457274 112.510189 
L 193.457274 112.180426 
L 191.406432 112.921432 
L 191.406432 112.588708 
L 190.381011 112.963846 
L 190.381011 112.628819 
L 189.8683 112.817391 
L 189.8683 112.480387 
L 187.304747 113.435294 
L 187.304747 112.408889 
L 186.279326 112.795236 
L 186.279326 112.100948 
L 184.228484 112.882217 
L 184.228484 112.530909 
L 183.203063 112.926701 
L 183.203063 112.572824 
L 182.690352 112.771837 
L 182.690352 112.415754 
L 182.177642 112.615385 
L 182.177642 111.534884 
L 181.664931 111.734301 
L 181.664931 111.00375 
L 179.614089 111.808421 
L 179.614089 111.066667 
L 177.563247 111.88492 
L 177.563247 111.131613 
L 175.512404 111.963913 
L 175.512404 111.198689 
L 172.948851 112.260166 
L 172.948851 111.481671 
L 170.898009 112.348394 
L 170.898009 111.158182 
L 170.385299 111.37641 
L 170.385299 110.570544 
L 169.872588 110.788966 
L 169.872588 110.382017 
L 166.796325 111.716129 
L 166.796325 110.471006 
L 165.258193 111.150806 
L 165.258193 110.304865 
L 163.720061 110.993455 
L 163.720061 110.564863 
L 162.69464 111.029725 
L 162.69464 108.840745 
L 162.18193 109.07215 
L 162.18193 107.268644 
L 160.131087 108.197827 
L 160.131087 107.736923 
L 158.592956 108.447379 
L 158.592956 107.981299 
L 158.080245 108.220456 
L 158.080245 107.277639 
L 157.567534 107.516842 
L 157.567534 107.04 
L 157.054824 107.28 
L 157.054824 106.799203 
L 152.440429 109.025753 
L 152.440429 108.039724 
L 151.927718 108.293979 
L 151.927718 107.795 
L 151.415008 108.050174 
L 151.415008 107.546853 
L 149.876876 108.320565 
L 149.876876 107.811064 
L 147.826034 108.865036 
L 147.826034 107.303564 
L 147.313323 107.569051 
L 147.313323 107.04 
L 146.800613 107.306471 
L 146.800613 106.772546 
L 144.74977 107.854382 
L 144.74977 107.312481 
L 144.23706 107.587019 
L 144.23706 107.04 
L 138.597243 110.191304 
L 138.597243 109.061355 
L 138.084533 109.35936 
L 138.084533 108.786506 
L 137.571822 109.085806 
L 137.571822 107.923902 
L 136.033691 108.82963 
L 136.033691 108.238017 
L 133.470138 109.792405 
L 133.470138 108.582128 
L 132.957427 108.898462 
L 132.957427 108.284292 
L 132.444717 108.602069 
L 132.444717 107.981299 
L 131.932006 108.300522 
L 131.932006 107.04 
L 129.881164 108.334286 
L 129.881164 107.690045 
L 129.368453 108.019459 
L 129.368453 106.710545 
L 128.343032 107.372477 
L 128.343032 103.279245 
L 127.317611 103.933714 
L 127.317611 103.225263 
L 125.779479 104.225243 
L 125.779479 103.50439 
L 125.266769 103.842353 
L 125.266769 102.375446 
L 123.728637 103.397789 
L 123.728637 101.889137 
L 123.215926 102.232653 
L 123.215926 101.464615 
L 121.677795 102.51 
L 121.677795 101.72733 
L 120.652374 102.438095 
L 120.652374 101.642553 
L 119.626953 102.363871 
L 119.626953 101.555027 
L 116.550689 103.80067 
L 116.550689 102.96809 
L 115.012557 104.1408 
L 115.012557 101.56186 
L 111.423583 104.404364 
L 111.423583 103.50439 
L 110.910873 103.927362 
L 110.910873 103.013333 
L 108.34732 105.193376 
L 108.34732 103.299097 
L 105.783767 105.5904 
L 105.783767 104.607785 
L 102.707504 107.546853 
L 102.707504 105.497872 
L 100.143951 108.105882 
L 100.143951 107.04 
L 99.63124 107.580896 
L 99.63124 106.495038 
L 98.605819 107.593282 
L 98.605819 105.354419 
L 96.554977 107.61984 
L 96.554977 106.455484 
L 96.042266 107.04 
L 96.042266 105.851803 
L 94.504135 107.649076 
L 94.504135 106.425763 
L 92.966003 108.300522 
L 92.966003 105.757168 
L 91.940582 107.04 
L 91.940582 105.722182 
L 90.915161 107.04 
L 90.915161 105.685234 
L 90.40245 106.356226 
L 90.40245 104.969143 
L 87.838897 108.4896 
L 86.300766 110.776082 
L 86.300766 107.802947 
L 85.788055 108.582128 
L 85.788055 105.464348 
L 85.275345 106.243516 
L 85.275345 101.274545 
L 84.249923 102.826047 
L 84.249923 99.274286 
L 81.686371 103.370127 
L 81.17366 104.252308 
L 81.17366 96.265946 
L 79.122818 99.792 
L 77.071975 103.745455 
L 76.046554 105.9075 
L 76.046554 103.588571 
L 74.508423 107.04 
L 74.508423 104.583051 
L 72.45758 109.675636 
L 70.919449 114.009231 
L 69.894028 117.1872 
L 69.894028 105.464348 
L 68.355896 110.411163 
L 67.330475 114.11122 
L 67.330475 110.664 
L 66.817764 112.615385 
L 66.817764 108.947368 
L 65.279632 115.323429 
L 64.254211 120.218182 
L 64.254211 116.1 
L 62.71608 124.535172 
L 61.690658 131.2 
L 60.665237 138.9312 
L 60.665237 134.22 
L 59.639816 143.28 
L 58.614395 154.152 
L 58.101685 160.446316 
L 58.101685 155.36 
L 57.588974 162.465882 
L 57.588974 156.87 
L 57.076263 165.024 
L 57.076263 143.28 
L 56.563553 153.163636 
L 56.563553 143.28 
L 56.050842 155.36 
L 56.050842 143.28 
L 55.538132 158.811429 
L 55.538132 143.28 
L 55.025421 165.024 
L 55.025421 107.04 
L 54.512711 143.28 
L 54.512711 34.56 
L 54 34.56 
L 54 34.56 
" style="fill:none;stroke:#1f77b4;stroke-linecap:square;stroke-width:1.5;"/>
   </g>
   <g id="patch_3">
    <path d="M 54 252 
L 54 34.56 
" style="fill:none;stroke:#000000;stroke-linecap:square;stroke-linejoin:miter;stroke-width:0.8;"/>
   </g>
   <g id="patch_4">
    <path d="M 388.8 252 
L 388.8 34.56 
" style="fill:none;stroke:#000000;stroke-linecap:square;stroke-linejoin:miter;stroke-width:0.8;"/>
   </g>
   <g id="patch_5">
    <path d="M 54 252 
L 388.8 252 
" style="fill:none;stroke:#000000;stroke-linecap:square;stroke-linejoin:miter;stroke-width:0.8;"/>
   </g>
   <g id="patch_6">
    <path d="M 54 34.56 
L 388.8 34.56 
" style="fill:none;stroke:#000000;stroke-linecap:square;stroke-linejoin:miter;stroke-width:0.8;"/>
   </g>
   <g id="text_15">
    <!-- Precision-Recall curve for Leave-one-out logistic regression -->
    <g transform="translate(44.069063 28.56)scale(0.12 -0.12)">
     <defs>
      <path d="M 313 2009 
L 1997 2009 
L 1997 1497 
L 313 1497 
L 313 2009 
z
" id="DejaVuSans-2d" transform="scale(0.015625)"/>
      <path id="DejaVuSans-20" transform="scale(0.015625)"/>
      <path d="M 544 1381 
L 544 3500 
L 1119 3500 
L 1119 1403 
Q 1119 906 1312 657 
Q 1506 409 1894 409 
Q 2359 409 2629 706 
Q 2900 1003 2900 1516 
L 2900 3500 
L 3475 3500 
L 3475 0 
L 2900 0 
L 2900 538 
Q 2691 219 2414 64 
Q 2138 -91 1772 -91 
Q 1169 -91 856 284 
Q 544 659 544 1381 
z
M 1991 3584 
L 1991 3584 
z
" id="DejaVuSans-75" transform="scale(0.015625)"/>
      <path d="M 191 3500 
L 800 3500 
L 1894 563 
L 2988 3500 
L 3597 3500 
L 2284 0 
L 1503 0 
L 191 3500 
z
" id="DejaVuSans-76" transform="scale(0.015625)"/>
      <path d="M 2375 4863 
L 2375 4384 
L 1825 4384 
Q 1516 4384 1395 4259 
Q 1275 4134 1275 3809 
L 1275 3500 
L 2222 3500 
L 2222 3053 
L 1275 3053 
L 1275 0 
L 697 0 
L 697 3053 
L 147 3053 
L 147 3500 
L 697 3500 
L 697 3744 
Q 697 4328 969 4595 
Q 1241 4863 1831 4863 
L 2375 4863 
z
" id="DejaVuSans-66" transform="scale(0.015625)"/>
      <path d="M 628 4666 
L 1259 4666 
L 1259 531 
L 3531 531 
L 3531 0 
L 628 0 
L 628 4666 
z
" id="DejaVuSans-4c" transform="scale(0.015625)"/>
      <path d="M 1172 4494 
L 1172 3500 
L 2356 3500 
L 2356 3053 
L 1172 3053 
L 1172 1153 
Q 1172 725 1289 603 
Q 1406 481 1766 481 
L 2356 481 
L 2356 0 
L 1766 0 
Q 1100 0 847 248 
Q 594 497 594 1153 
L 594 3053 
L 172 3053 
L 172 3500 
L 594 3500 
L 594 4494 
L 1172 4494 
z
" id="DejaVuSans-74" transform="scale(0.015625)"/>
      <path d="M 2906 1791 
Q 2906 2416 2648 2759 
Q 2391 3103 1925 3103 
Q 1463 3103 1205 2759 
Q 947 2416 947 1791 
Q 947 1169 1205 825 
Q 1463 481 1925 481 
Q 2391 481 2648 825 
Q 2906 1169 2906 1791 
z
M 3481 434 
Q 3481 -459 3084 -895 
Q 2688 -1331 1869 -1331 
Q 1566 -1331 1297 -1286 
Q 1028 -1241 775 -1147 
L 775 -588 
Q 1028 -725 1275 -790 
Q 1522 -856 1778 -856 
Q 2344 -856 2625 -561 
Q 2906 -266 2906 331 
L 2906 616 
Q 2728 306 2450 153 
Q 2172 0 1784 0 
Q 1141 0 747 490 
Q 353 981 353 1791 
Q 353 2603 747 3093 
Q 1141 3584 1784 3584 
Q 2172 3584 2450 3431 
Q 2728 3278 2906 2969 
L 2906 3500 
L 3481 3500 
L 3481 434 
z
" id="DejaVuSans-67" transform="scale(0.015625)"/>
     </defs>
     <use xlink:href="#DejaVuSans-50"/>
     <use x="58.552734" xlink:href="#DejaVuSans-72"/>
     <use x="97.416016" xlink:href="#DejaVuSans-65"/>
     <use x="158.939453" xlink:href="#DejaVuSans-63"/>
     <use x="213.919922" xlink:href="#DejaVuSans-69"/>
     <use x="241.703125" xlink:href="#DejaVuSans-73"/>
     <use x="293.802734" xlink:href="#DejaVuSans-69"/>
     <use x="321.585938" xlink:href="#DejaVuSans-6f"/>
     <use x="382.767578" xlink:href="#DejaVuSans-6e"/>
     <use x="446.146484" xlink:href="#DejaVuSans-2d"/>
     <use x="482.230469" xlink:href="#DejaVuSans-52"/>
     <use x="547.212891" xlink:href="#DejaVuSans-65"/>
     <use x="608.736328" xlink:href="#DejaVuSans-63"/>
     <use x="663.716797" xlink:href="#DejaVuSans-61"/>
     <use x="724.996094" xlink:href="#DejaVuSans-6c"/>
     <use x="752.779297" xlink:href="#DejaVuSans-6c"/>
     <use x="780.5625" xlink:href="#DejaVuSans-20"/>
     <use x="812.349609" xlink:href="#DejaVuSans-63"/>
     <use x="867.330078" xlink:href="#DejaVuSans-75"/>
     <use x="930.708984" xlink:href="#DejaVuSans-72"/>
     <use x="971.822266" xlink:href="#DejaVuSans-76"/>
     <use x="1031.001953" xlink:href="#DejaVuSans-65"/>
     <use x="1092.525391" xlink:href="#DejaVuSans-20"/>
     <use x="1124.3125" xlink:href="#DejaVuSans-66"/>
     <use x="1159.517578" xlink:href="#DejaVuSans-6f"/>
     <use x="1220.699219" xlink:href="#DejaVuSans-72"/>
     <use x="1261.8125" xlink:href="#DejaVuSans-20"/>
     <use x="1293.599609" xlink:href="#DejaVuSans-4c"/>
     <use x="1347.5625" xlink:href="#DejaVuSans-65"/>
     <use x="1409.085938" xlink:href="#DejaVuSans-61"/>
     <use x="1470.365234" xlink:href="#DejaVuSans-76"/>
     <use x="1529.544922" xlink:href="#DejaVuSans-65"/>
     <use x="1591.068359" xlink:href="#DejaVuSans-2d"/>
     <use x="1629.027344" xlink:href="#DejaVuSans-6f"/>
     <use x="1690.208984" xlink:href="#DejaVuSans-6e"/>
     <use x="1753.587891" xlink:href="#DejaVuSans-65"/>
     <use x="1815.111328" xlink:href="#DejaVuSans-2d"/>
     <use x="1853.070312" xlink:href="#DejaVuSans-6f"/>
     <use x="1914.251953" xlink:href="#DejaVuSans-75"/>
     <use x="1977.630859" xlink:href="#DejaVuSans-74"/>
     <use x="2016.839844" xlink:href="#DejaVuSans-20"/>
     <use x="2048.626953" xlink:href="#DejaVuSans-6c"/>
     <use x="2076.410156" xlink:href="#DejaVuSans-6f"/>
     <use x="2137.591797" xlink:href="#DejaVuSans-67"/>
     <use x="2201.068359" xlink:href="#DejaVuSans-69"/>
     <use x="2228.851562" xlink:href="#DejaVuSans-73"/>
     <use x="2280.951172" xlink:href="#DejaVuSans-74"/>
     <use x="2320.160156" xlink:href="#DejaVuSans-69"/>
     <use x="2347.943359" xlink:href="#DejaVuSans-63"/>
     <use x="2402.923828" xlink:href="#DejaVuSans-20"/>
     <use x="2434.710938" xlink:href="#DejaVuSans-72"/>
     <use x="2473.574219" xlink:href="#DejaVuSans-65"/>
     <use x="2535.097656" xlink:href="#DejaVuSans-67"/>
     <use x="2598.574219" xlink:href="#DejaVuSans-72"/>
     <use x="2637.4375" xlink:href="#DejaVuSans-65"/>
     <use x="2698.960938" xlink:href="#DejaVuSans-73"/>
     <use x="2751.060547" xlink:href="#DejaVuSans-73"/>
     <use x="2803.160156" xlink:href="#DejaVuSans-69"/>
     <use x="2830.943359" xlink:href="#DejaVuSans-6f"/>
     <use x="2892.125" xlink:href="#DejaVuSans-6e"/>
    </g>
   </g>
  </g>
 </g>
 <defs>
  <clipPath id="pe6e5892d7a">
   <rect height="217.44" width="334.8" x="54" y="34.56"/>
  </clipPath>
 </defs>
</svg>
