<?xml version="1.0" encoding="utf-8" standalone="no"?>
<!DOCTYPE svg PUBLIC "-//W3C//DTD SVG 1.1//EN"
  "http://www.w3.org/Graphics/SVG/1.1/DTD/svg11.dtd">
<svg height="288pt" version="1.1" viewBox="0 0 432 288" width="432pt" xmlns="http://www.w3.org/2000/svg" xmlns:xlink="http://www.w3.org/1999/xlink">
 <metadata>
  <rdf:RDF xmlns:cc="http://creativecommons.org/ns#" xmlns:dc="http://purl.org/dc/elements/1.1/" xmlns:rdf="http://www.w3.org/1999/02/22-rdf-syntax-ns#">
   <cc:Work>
    <dc:type rdf:resource="http://purl.org/dc/dcmitype/StillImage"/>
    <dc:date>2022-06-19T22:13:06.200279</dc:date>
    <dc:format>image/svg+xml</dc:format>
    <dc:creator>
     <cc:Agent>
      <dc:title>Matplotlib v3.4.3, https://matplotlib.org/</dc:title>
     </cc:Agent>
    </dc:creator>
   </cc:Work>
  </rdf:RDF>
 </metadata>
 <defs>
  <style type="text/css">*{stroke-linecap:butt;stroke-linejoin:round;}</style>
 </defs>
 <g id="figure_1">
  <g id="patch_1">
   <path d="M 0 288 
L 432 288 
L 432 0 
L 0 0 
z
" style="fill:none;"/>
  </g>
  <g id="axes_1">
   <g id="patch_2">
    <path d="M 54 252 
L 388.8 252 
L 388.8 34.56 
L 54 34.56 
z
" style="fill:#ffffff;"/>
   </g>
   <g id="matplotlib.axis_1">
    <g id="xtick_1">
     <g id="line2d_1">
      <path clip-path="url(#pbc866006a1)" d="M 54 252 
L 54 34.56 
" style="fill:none;stroke:#b0b0b0;stroke-linecap:square;stroke-width:0.8;"/>
     </g>
     <g id="line2d_2">
      <defs>
       <path d="M 0 0 
L 0 3.5 
" id="mb9a936ad89" style="stroke:#000000;stroke-width:0.8;"/>
      </defs>
      <g>
       <use style="stroke:#000000;stroke-width:0.8;" x="54" xlink:href="#mb9a936ad89" y="252"/>
      </g>
     </g>
     <g id="text_1">
      <!-- 0.0 -->
      <g transform="translate(46.048437 266.598437)scale(0.1 -0.1)">
       <defs>
        <path d="M 2034 4250 
Q 1547 4250 1301 3770 
Q 1056 3291 1056 2328 
Q 1056 1369 1301 889 
Q 1547 409 2034 409 
Q 2525 409 2770 889 
Q 3016 1369 3016 2328 
Q 3016 3291 2770 3770 
Q 2525 4250 2034 4250 
z
M 2034 4750 
Q 2819 4750 3233 4129 
Q 3647 3509 3647 2328 
Q 3647 1150 3233 529 
Q 2819 -91 2034 -91 
Q 1250 -91 836 529 
Q 422 1150 422 2328 
Q 422 3509 836 4129 
Q 1250 4750 2034 4750 
z
" id="DejaVuSans-30" transform="scale(0.015625)"/>
        <path d="M 684 794 
L 1344 794 
L 1344 0 
L 684 0 
L 684 794 
z
" id="DejaVuSans-2e" transform="scale(0.015625)"/>
       </defs>
       <use xlink:href="#DejaVuSans-30"/>
       <use x="63.623047" xlink:href="#DejaVuSans-2e"/>
       <use x="95.410156" xlink:href="#DejaVuSans-30"/>
      </g>
     </g>
    </g>
    <g id="xtick_2">
     <g id="line2d_3">
      <path clip-path="url(#pbc866006a1)" d="M 120.96 252 
L 120.96 34.56 
" style="fill:none;stroke:#b0b0b0;stroke-linecap:square;stroke-width:0.8;"/>
     </g>
     <g id="line2d_4">
      <g>
       <use style="stroke:#000000;stroke-width:0.8;" x="120.96" xlink:href="#mb9a936ad89" y="252"/>
      </g>
     </g>
     <g id="text_2">
      <!-- 0.2 -->
      <g transform="translate(113.008438 266.598437)scale(0.1 -0.1)">
       <defs>
        <path d="M 1228 531 
L 3431 531 
L 3431 0 
L 469 0 
L 469 531 
Q 828 903 1448 1529 
Q 2069 2156 2228 2338 
Q 2531 2678 2651 2914 
Q 2772 3150 2772 3378 
Q 2772 3750 2511 3984 
Q 2250 4219 1831 4219 
Q 1534 4219 1204 4116 
Q 875 4013 500 3803 
L 500 4441 
Q 881 4594 1212 4672 
Q 1544 4750 1819 4750 
Q 2544 4750 2975 4387 
Q 3406 4025 3406 3419 
Q 3406 3131 3298 2873 
Q 3191 2616 2906 2266 
Q 2828 2175 2409 1742 
Q 1991 1309 1228 531 
z
" id="DejaVuSans-32" transform="scale(0.015625)"/>
       </defs>
       <use xlink:href="#DejaVuSans-30"/>
       <use x="63.623047" xlink:href="#DejaVuSans-2e"/>
       <use x="95.410156" xlink:href="#DejaVuSans-32"/>
      </g>
     </g>
    </g>
    <g id="xtick_3">
     <g id="line2d_5">
      <path clip-path="url(#pbc866006a1)" d="M 187.92 252 
L 187.92 34.56 
" style="fill:none;stroke:#b0b0b0;stroke-linecap:square;stroke-width:0.8;"/>
     </g>
     <g id="line2d_6">
      <g>
       <use style="stroke:#000000;stroke-width:0.8;" x="187.92" xlink:href="#mb9a936ad89" y="252"/>
      </g>
     </g>
     <g id="text_3">
      <!-- 0.4 -->
      <g transform="translate(179.968438 266.598437)scale(0.1 -0.1)">
       <defs>
        <path d="M 2419 4116 
L 825 1625 
L 2419 1625 
L 2419 4116 
z
M 2253 4666 
L 3047 4666 
L 3047 1625 
L 3713 1625 
L 3713 1100 
L 3047 1100 
L 3047 0 
L 2419 0 
L 2419 1100 
L 313 1100 
L 313 1709 
L 2253 4666 
z
" id="DejaVuSans-34" transform="scale(0.015625)"/>
       </defs>
       <use xlink:href="#DejaVuSans-30"/>
       <use x="63.623047" xlink:href="#DejaVuSans-2e"/>
       <use x="95.410156" xlink:href="#DejaVuSans-34"/>
      </g>
     </g>
    </g>
    <g id="xtick_4">
     <g id="line2d_7">
      <path clip-path="url(#pbc866006a1)" d="M 254.88 252 
L 254.88 34.56 
" style="fill:none;stroke:#b0b0b0;stroke-linecap:square;stroke-width:0.8;"/>
     </g>
     <g id="line2d_8">
      <g>
       <use style="stroke:#000000;stroke-width:0.8;" x="254.88" xlink:href="#mb9a936ad89" y="252"/>
      </g>
     </g>
     <g id="text_4">
      <!-- 0.6 -->
      <g transform="translate(246.928438 266.598437)scale(0.1 -0.1)">
       <defs>
        <path d="M 2113 2584 
Q 1688 2584 1439 2293 
Q 1191 2003 1191 1497 
Q 1191 994 1439 701 
Q 1688 409 2113 409 
Q 2538 409 2786 701 
Q 3034 994 3034 1497 
Q 3034 2003 2786 2293 
Q 2538 2584 2113 2584 
z
M 3366 4563 
L 3366 3988 
Q 3128 4100 2886 4159 
Q 2644 4219 2406 4219 
Q 1781 4219 1451 3797 
Q 1122 3375 1075 2522 
Q 1259 2794 1537 2939 
Q 1816 3084 2150 3084 
Q 2853 3084 3261 2657 
Q 3669 2231 3669 1497 
Q 3669 778 3244 343 
Q 2819 -91 2113 -91 
Q 1303 -91 875 529 
Q 447 1150 447 2328 
Q 447 3434 972 4092 
Q 1497 4750 2381 4750 
Q 2619 4750 2861 4703 
Q 3103 4656 3366 4563 
z
" id="DejaVuSans-36" transform="scale(0.015625)"/>
       </defs>
       <use xlink:href="#DejaVuSans-30"/>
       <use x="63.623047" xlink:href="#DejaVuSans-2e"/>
       <use x="95.410156" xlink:href="#DejaVuSans-36"/>
      </g>
     </g>
    </g>
    <g id="xtick_5">
     <g id="line2d_9">
      <path clip-path="url(#pbc866006a1)" d="M 321.84 252 
L 321.84 34.56 
" style="fill:none;stroke:#b0b0b0;stroke-linecap:square;stroke-width:0.8;"/>
     </g>
     <g id="line2d_10">
      <g>
       <use style="stroke:#000000;stroke-width:0.8;" x="321.84" xlink:href="#mb9a936ad89" y="252"/>
      </g>
     </g>
     <g id="text_5">
      <!-- 0.8 -->
      <g transform="translate(313.888438 266.598437)scale(0.1 -0.1)">
       <defs>
        <path d="M 2034 2216 
Q 1584 2216 1326 1975 
Q 1069 1734 1069 1313 
Q 1069 891 1326 650 
Q 1584 409 2034 409 
Q 2484 409 2743 651 
Q 3003 894 3003 1313 
Q 3003 1734 2745 1975 
Q 2488 2216 2034 2216 
z
M 1403 2484 
Q 997 2584 770 2862 
Q 544 3141 544 3541 
Q 544 4100 942 4425 
Q 1341 4750 2034 4750 
Q 2731 4750 3128 4425 
Q 3525 4100 3525 3541 
Q 3525 3141 3298 2862 
Q 3072 2584 2669 2484 
Q 3125 2378 3379 2068 
Q 3634 1759 3634 1313 
Q 3634 634 3220 271 
Q 2806 -91 2034 -91 
Q 1263 -91 848 271 
Q 434 634 434 1313 
Q 434 1759 690 2068 
Q 947 2378 1403 2484 
z
M 1172 3481 
Q 1172 3119 1398 2916 
Q 1625 2713 2034 2713 
Q 2441 2713 2670 2916 
Q 2900 3119 2900 3481 
Q 2900 3844 2670 4047 
Q 2441 4250 2034 4250 
Q 1625 4250 1398 4047 
Q 1172 3844 1172 3481 
z
" id="DejaVuSans-38" transform="scale(0.015625)"/>
       </defs>
       <use xlink:href="#DejaVuSans-30"/>
       <use x="63.623047" xlink:href="#DejaVuSans-2e"/>
       <use x="95.410156" xlink:href="#DejaVuSans-38"/>
      </g>
     </g>
    </g>
    <g id="xtick_6">
     <g id="line2d_11">
      <path clip-path="url(#pbc866006a1)" d="M 388.8 252 
L 388.8 34.56 
" style="fill:none;stroke:#b0b0b0;stroke-linecap:square;stroke-width:0.8;"/>
     </g>
     <g id="line2d_12">
      <g>
       <use style="stroke:#000000;stroke-width:0.8;" x="388.8" xlink:href="#mb9a936ad89" y="252"/>
      </g>
     </g>
     <g id="text_6">
      <!-- 1.0 -->
      <g transform="translate(380.848437 266.598437)scale(0.1 -0.1)">
       <defs>
        <path d="M 794 531 
L 1825 531 
L 1825 4091 
L 703 3866 
L 703 4441 
L 1819 4666 
L 2450 4666 
L 2450 531 
L 3481 531 
L 3481 0 
L 794 0 
L 794 531 
z
" id="DejaVuSans-31" transform="scale(0.015625)"/>
       </defs>
       <use xlink:href="#DejaVuSans-31"/>
       <use x="63.623047" xlink:href="#DejaVuSans-2e"/>
       <use x="95.410156" xlink:href="#DejaVuSans-30"/>
      </g>
     </g>
    </g>
    <g id="text_7">
     <!-- Recall -->
     <g transform="translate(206.482812 280.276563)scale(0.1 -0.1)">
      <defs>
       <path d="M 2841 2188 
Q 3044 2119 3236 1894 
Q 3428 1669 3622 1275 
L 4263 0 
L 3584 0 
L 2988 1197 
Q 2756 1666 2539 1819 
Q 2322 1972 1947 1972 
L 1259 1972 
L 1259 0 
L 628 0 
L 628 4666 
L 2053 4666 
Q 2853 4666 3247 4331 
Q 3641 3997 3641 3322 
Q 3641 2881 3436 2590 
Q 3231 2300 2841 2188 
z
M 1259 4147 
L 1259 2491 
L 2053 2491 
Q 2509 2491 2742 2702 
Q 2975 2913 2975 3322 
Q 2975 3731 2742 3939 
Q 2509 4147 2053 4147 
L 1259 4147 
z
" id="DejaVuSans-52" transform="scale(0.015625)"/>
       <path d="M 3597 1894 
L 3597 1613 
L 953 1613 
Q 991 1019 1311 708 
Q 1631 397 2203 397 
Q 2534 397 2845 478 
Q 3156 559 3463 722 
L 3463 178 
Q 3153 47 2828 -22 
Q 2503 -91 2169 -91 
Q 1331 -91 842 396 
Q 353 884 353 1716 
Q 353 2575 817 3079 
Q 1281 3584 2069 3584 
Q 2775 3584 3186 3129 
Q 3597 2675 3597 1894 
z
M 3022 2063 
Q 3016 2534 2758 2815 
Q 2500 3097 2075 3097 
Q 1594 3097 1305 2825 
Q 1016 2553 972 2059 
L 3022 2063 
z
" id="DejaVuSans-65" transform="scale(0.015625)"/>
       <path d="M 3122 3366 
L 3122 2828 
Q 2878 2963 2633 3030 
Q 2388 3097 2138 3097 
Q 1578 3097 1268 2742 
Q 959 2388 959 1747 
Q 959 1106 1268 751 
Q 1578 397 2138 397 
Q 2388 397 2633 464 
Q 2878 531 3122 666 
L 3122 134 
Q 2881 22 2623 -34 
Q 2366 -91 2075 -91 
Q 1284 -91 818 406 
Q 353 903 353 1747 
Q 353 2603 823 3093 
Q 1294 3584 2113 3584 
Q 2378 3584 2631 3529 
Q 2884 3475 3122 3366 
z
" id="DejaVuSans-63" transform="scale(0.015625)"/>
       <path d="M 2194 1759 
Q 1497 1759 1228 1600 
Q 959 1441 959 1056 
Q 959 750 1161 570 
Q 1363 391 1709 391 
Q 2188 391 2477 730 
Q 2766 1069 2766 1631 
L 2766 1759 
L 2194 1759 
z
M 3341 1997 
L 3341 0 
L 2766 0 
L 2766 531 
Q 2569 213 2275 61 
Q 1981 -91 1556 -91 
Q 1019 -91 701 211 
Q 384 513 384 1019 
Q 384 1609 779 1909 
Q 1175 2209 1959 2209 
L 2766 2209 
L 2766 2266 
Q 2766 2663 2505 2880 
Q 2244 3097 1772 3097 
Q 1472 3097 1187 3025 
Q 903 2953 641 2809 
L 641 3341 
Q 956 3463 1253 3523 
Q 1550 3584 1831 3584 
Q 2591 3584 2966 3190 
Q 3341 2797 3341 1997 
z
" id="DejaVuSans-61" transform="scale(0.015625)"/>
       <path d="M 603 4863 
L 1178 4863 
L 1178 0 
L 603 0 
L 603 4863 
z
" id="DejaVuSans-6c" transform="scale(0.015625)"/>
      </defs>
      <use xlink:href="#DejaVuSans-52"/>
      <use x="64.982422" xlink:href="#DejaVuSans-65"/>
      <use x="126.505859" xlink:href="#DejaVuSans-63"/>
      <use x="181.486328" xlink:href="#DejaVuSans-61"/>
      <use x="242.765625" xlink:href="#DejaVuSans-6c"/>
      <use x="270.548828" xlink:href="#DejaVuSans-6c"/>
     </g>
    </g>
   </g>
   <g id="matplotlib.axis_2">
    <g id="ytick_1">
     <g id="line2d_13">
      <path clip-path="url(#pbc866006a1)" d="M 54 252 
L 388.8 252 
" style="fill:none;stroke:#b0b0b0;stroke-linecap:square;stroke-width:0.8;"/>
     </g>
     <g id="line2d_14">
      <defs>
       <path d="M 0 0 
L -3.5 0 
" id="m4c3e8b316b" style="stroke:#000000;stroke-width:0.8;"/>
      </defs>
      <g>
       <use style="stroke:#000000;stroke-width:0.8;" x="54" xlink:href="#m4c3e8b316b" y="252"/>
      </g>
     </g>
     <g id="text_8">
      <!-- 0.0 -->
      <g transform="translate(31.096875 255.799219)scale(0.1 -0.1)">
       <use xlink:href="#DejaVuSans-30"/>
       <use x="63.623047" xlink:href="#DejaVuSans-2e"/>
       <use x="95.410156" xlink:href="#DejaVuSans-30"/>
      </g>
     </g>
    </g>
    <g id="ytick_2">
     <g id="line2d_15">
      <path clip-path="url(#pbc866006a1)" d="M 54 208.512 
L 388.8 208.512 
" style="fill:none;stroke:#b0b0b0;stroke-linecap:square;stroke-width:0.8;"/>
     </g>
     <g id="line2d_16">
      <g>
       <use style="stroke:#000000;stroke-width:0.8;" x="54" xlink:href="#m4c3e8b316b" y="208.512"/>
      </g>
     </g>
     <g id="text_9">
      <!-- 0.2 -->
      <g transform="translate(31.096875 212.311219)scale(0.1 -0.1)">
       <use xlink:href="#DejaVuSans-30"/>
       <use x="63.623047" xlink:href="#DejaVuSans-2e"/>
       <use x="95.410156" xlink:href="#DejaVuSans-32"/>
      </g>
     </g>
    </g>
    <g id="ytick_3">
     <g id="line2d_17">
      <path clip-path="url(#pbc866006a1)" d="M 54 165.024 
L 388.8 165.024 
" style="fill:none;stroke:#b0b0b0;stroke-linecap:square;stroke-width:0.8;"/>
     </g>
     <g id="line2d_18">
      <g>
       <use style="stroke:#000000;stroke-width:0.8;" x="54" xlink:href="#m4c3e8b316b" y="165.024"/>
      </g>
     </g>
     <g id="text_10">
      <!-- 0.4 -->
      <g transform="translate(31.096875 168.823219)scale(0.1 -0.1)">
       <use xlink:href="#DejaVuSans-30"/>
       <use x="63.623047" xlink:href="#DejaVuSans-2e"/>
       <use x="95.410156" xlink:href="#DejaVuSans-34"/>
      </g>
     </g>
    </g>
    <g id="ytick_4">
     <g id="line2d_19">
      <path clip-path="url(#pbc866006a1)" d="M 54 121.536 
L 388.8 121.536 
" style="fill:none;stroke:#b0b0b0;stroke-linecap:square;stroke-width:0.8;"/>
     </g>
     <g id="line2d_20">
      <g>
       <use style="stroke:#000000;stroke-width:0.8;" x="54" xlink:href="#m4c3e8b316b" y="121.536"/>
      </g>
     </g>
     <g id="text_11">
      <!-- 0.6 -->
      <g transform="translate(31.096875 125.335219)scale(0.1 -0.1)">
       <use xlink:href="#DejaVuSans-30"/>
       <use x="63.623047" xlink:href="#DejaVuSans-2e"/>
       <use x="95.410156" xlink:href="#DejaVuSans-36"/>
      </g>
     </g>
    </g>
    <g id="ytick_5">
     <g id="line2d_21">
      <path clip-path="url(#pbc866006a1)" d="M 54 78.048 
L 388.8 78.048 
" style="fill:none;stroke:#b0b0b0;stroke-linecap:square;stroke-width:0.8;"/>
     </g>
     <g id="line2d_22">
      <g>
       <use style="stroke:#000000;stroke-width:0.8;" x="54" xlink:href="#m4c3e8b316b" y="78.048"/>
      </g>
     </g>
     <g id="text_12">
      <!-- 0.8 -->
      <g transform="translate(31.096875 81.847219)scale(0.1 -0.1)">
       <use xlink:href="#DejaVuSans-30"/>
       <use x="63.623047" xlink:href="#DejaVuSans-2e"/>
       <use x="95.410156" xlink:href="#DejaVuSans-38"/>
      </g>
     </g>
    </g>
    <g id="ytick_6">
     <g id="line2d_23">
      <path clip-path="url(#pbc866006a1)" d="M 54 34.56 
L 388.8 34.56 
" style="fill:none;stroke:#b0b0b0;stroke-linecap:square;stroke-width:0.8;"/>
     </g>
     <g id="line2d_24">
      <g>
       <use style="stroke:#000000;stroke-width:0.8;" x="54" xlink:href="#m4c3e8b316b" y="34.56"/>
      </g>
     </g>
     <g id="text_13">
      <!-- 1.0 -->
      <g transform="translate(31.096875 38.359219)scale(0.1 -0.1)">
       <use xlink:href="#DejaVuSans-31"/>
       <use x="63.623047" xlink:href="#DejaVuSans-2e"/>
       <use x="95.410156" xlink:href="#DejaVuSans-30"/>
      </g>
     </g>
    </g>
    <g id="text_14">
     <!-- Precision -->
     <g transform="translate(25.017187 165.587031)rotate(-90)scale(0.1 -0.1)">
      <defs>
       <path d="M 1259 4147 
L 1259 2394 
L 2053 2394 
Q 2494 2394 2734 2622 
Q 2975 2850 2975 3272 
Q 2975 3691 2734 3919 
Q 2494 4147 2053 4147 
L 1259 4147 
z
M 628 4666 
L 2053 4666 
Q 2838 4666 3239 4311 
Q 3641 3956 3641 3272 
Q 3641 2581 3239 2228 
Q 2838 1875 2053 1875 
L 1259 1875 
L 1259 0 
L 628 0 
L 628 4666 
z
" id="DejaVuSans-50" transform="scale(0.015625)"/>
       <path d="M 2631 2963 
Q 2534 3019 2420 3045 
Q 2306 3072 2169 3072 
Q 1681 3072 1420 2755 
Q 1159 2438 1159 1844 
L 1159 0 
L 581 0 
L 581 3500 
L 1159 3500 
L 1159 2956 
Q 1341 3275 1631 3429 
Q 1922 3584 2338 3584 
Q 2397 3584 2469 3576 
Q 2541 3569 2628 3553 
L 2631 2963 
z
" id="DejaVuSans-72" transform="scale(0.015625)"/>
       <path d="M 603 3500 
L 1178 3500 
L 1178 0 
L 603 0 
L 603 3500 
z
M 603 4863 
L 1178 4863 
L 1178 4134 
L 603 4134 
L 603 4863 
z
" id="DejaVuSans-69" transform="scale(0.015625)"/>
       <path d="M 2834 3397 
L 2834 2853 
Q 2591 2978 2328 3040 
Q 2066 3103 1784 3103 
Q 1356 3103 1142 2972 
Q 928 2841 928 2578 
Q 928 2378 1081 2264 
Q 1234 2150 1697 2047 
L 1894 2003 
Q 2506 1872 2764 1633 
Q 3022 1394 3022 966 
Q 3022 478 2636 193 
Q 2250 -91 1575 -91 
Q 1294 -91 989 -36 
Q 684 19 347 128 
L 347 722 
Q 666 556 975 473 
Q 1284 391 1588 391 
Q 1994 391 2212 530 
Q 2431 669 2431 922 
Q 2431 1156 2273 1281 
Q 2116 1406 1581 1522 
L 1381 1569 
Q 847 1681 609 1914 
Q 372 2147 372 2553 
Q 372 3047 722 3315 
Q 1072 3584 1716 3584 
Q 2034 3584 2315 3537 
Q 2597 3491 2834 3397 
z
" id="DejaVuSans-73" transform="scale(0.015625)"/>
       <path d="M 1959 3097 
Q 1497 3097 1228 2736 
Q 959 2375 959 1747 
Q 959 1119 1226 758 
Q 1494 397 1959 397 
Q 2419 397 2687 759 
Q 2956 1122 2956 1747 
Q 2956 2369 2687 2733 
Q 2419 3097 1959 3097 
z
M 1959 3584 
Q 2709 3584 3137 3096 
Q 3566 2609 3566 1747 
Q 3566 888 3137 398 
Q 2709 -91 1959 -91 
Q 1206 -91 779 398 
Q 353 888 353 1747 
Q 353 2609 779 3096 
Q 1206 3584 1959 3584 
z
" id="DejaVuSans-6f" transform="scale(0.015625)"/>
       <path d="M 3513 2113 
L 3513 0 
L 2938 0 
L 2938 2094 
Q 2938 2591 2744 2837 
Q 2550 3084 2163 3084 
Q 1697 3084 1428 2787 
Q 1159 2491 1159 1978 
L 1159 0 
L 581 0 
L 581 3500 
L 1159 3500 
L 1159 2956 
Q 1366 3272 1645 3428 
Q 1925 3584 2291 3584 
Q 2894 3584 3203 3211 
Q 3513 2838 3513 2113 
z
" id="DejaVuSans-6e" transform="scale(0.015625)"/>
      </defs>
      <use xlink:href="#DejaVuSans-50"/>
      <use x="58.552734" xlink:href="#DejaVuSans-72"/>
      <use x="97.416016" xlink:href="#DejaVuSans-65"/>
      <use x="158.939453" xlink:href="#DejaVuSans-63"/>
      <use x="213.919922" xlink:href="#DejaVuSans-69"/>
      <use x="241.703125" xlink:href="#DejaVuSans-73"/>
      <use x="293.802734" xlink:href="#DejaVuSans-69"/>
      <use x="321.585938" xlink:href="#DejaVuSans-6f"/>
      <use x="382.767578" xlink:href="#DejaVuSans-6e"/>
     </g>
    </g>
   </g>
   <g id="line2d_25">
    <path clip-path="url(#pbc866006a1)" d="M 388.8 137.953157 
L 388.287289 138.03627 
L 388.287289 137.944586 
L 388.287289 137.298641 
L 387.261868 137.372263 
L 387.261868 136.905537 
L 386.236447 136.978678 
L 386.236447 136.696301 
L 385.211026 136.863738 
L 385.211026 136.769286 
L 385.211026 136.008059 
L 384.698315 136.091901 
L 384.698315 135.99603 
L 384.698315 135.028524 
L 384.185605 135.112387 
L 384.185605 135.014737 
L 384.185605 134.916923 
L 383.672894 135.000904 
L 383.672894 134.902915 
L 383.672894 133.714112 
L 383.160184 133.798069 
L 383.160184 133.697898 
L 383.160184 133.194485 
L 382.134763 133.36266 
L 382.134763 133.261433 
L 382.134763 132.854795 
L 381.622052 132.939023 
L 381.622052 132.836913 
L 381.622052 132.117204 
L 381.109342 132.201451 
L 381.109342 132.097908 
L 381.109342 131.890286 
L 379.058499 132.124383 
L 379.058499 131.810846 
L 378.545789 131.895707 
L 378.545789 131.790812 
L 378.545789 131.580472 
L 376.494946 131.815677 
L 376.494946 131.285296 
L 375.469525 131.349664 
L 375.469525 130.81344 
L 374.956815 130.899075 
L 374.956815 130.791238 
L 374.956815 130.574987 
L 373.418683 130.724154 
L 373.418683 130.288302 
L 372.393262 130.351135 
L 372.393262 129.13354 
L 371.880551 129.219672 
L 371.880551 129.107748 
L 371.880551 128.318532 
L 370.85513 128.490882 
L 370.85513 128.377259 
L 369.829709 128.550194 
L 369.829709 128.43631 
L 369.316998 128.522992 
L 369.316998 128.408872 
L 368.804288 128.495689 
L 368.804288 128.036992 
L 368.291577 128.123866 
L 368.291577 128.008633 
L 367.266156 128.182815 
L 367.266156 127.951597 
L 366.753446 128.038879 
L 366.753446 127.922919 
L 365.728025 128.097919 
L 365.728025 127.981689 
L 365.215314 128.069408 
L 365.215314 127.48483 
L 364.702603 127.572578 
L 364.702603 127.337143 
L 364.189893 127.425 
L 364.189893 127.070085 
L 363.164472 127.246127 
L 363.164472 126.529837 
L 361.113629 126.883228 
L 361.113629 126.762923 
L 359.575498 127.029662 
L 359.575498 126.667079 
L 359.062787 126.756244 
L 359.062787 126.513288 
L 357.524655 126.781634 
L 357.524655 126.169619 
L 356.499234 126.34907 
L 356.499234 125.854867 
L 355.473813 126.034759 
L 355.473813 125.910533 
L 354.961103 126.000711 
L 354.961103 125.876206 
L 354.448392 125.966528 
L 354.448392 125.71671 
L 353.935681 125.807143 
L 353.935681 125.051497 
L 353.422971 125.141898 
L 353.422971 124.887928 
L 352.91026 124.978437 
L 352.91026 124.467284 
L 352.39755 124.557825 
L 352.39755 124.300626 
L 351.884839 124.391273 
L 351.884839 124.262245 
L 351.372129 124.353036 
L 351.372129 124.223708 
L 350.346708 124.405766 
L 350.346708 124.146165 
L 349.833997 124.237393 
L 349.833997 124.107156 
L 348.808576 124.290092 
L 348.808576 124.159509 
L 347.270444 124.4352 
L 347.270444 124.172991 
L 346.245023 124.35757 
L 346.245023 123.696894 
L 345.219602 123.881826 
L 345.219602 123.481873 
L 344.706891 123.5745 
L 344.706891 123.440584 
L 344.194181 123.533361 
L 344.194181 123.129801 
L 343.16876 123.315677 
L 343.16876 122.773277 
L 342.656049 122.866329 
L 342.656049 121.905717 
L 342.143338 121.998638 
L 342.143338 121.72145 
L 341.630628 121.814472 
L 341.630628 120.693391 
L 341.117917 120.786207 
L 341.117917 119.645217 
L 340.092496 119.830588 
L 340.092496 119.542009 
L 339.579786 119.634885 
L 339.579786 119.490066 
L 339.067075 119.583089 
L 339.067075 119.437895 
L 338.554364 119.531065 
L 338.554364 119.093392 
L 338.041654 119.186593 
L 338.041654 118.893083 
L 337.528943 118.986372 
L 337.528943 118.83907 
L 336.503522 119.026149 
L 336.503522 118.8784 
L 334.965391 119.160401 
L 334.965391 119.012143 
L 333.939969 119.201074 
L 333.939969 118.903318 
L 332.914548 119.092854 
L 332.914548 118.943352 
L 331.889127 119.133619 
L 331.889127 118.682715 
L 331.376417 118.777984 
L 331.376417 118.626939 
L 330.863706 118.722361 
L 330.863706 118.419113 
L 330.350995 118.514624 
L 330.350995 117.596147 
L 329.838285 117.691481 
L 329.838285 117.071834 
L 328.812864 117.262613 
L 328.812864 116.950359 
L 327.274732 117.237767 
L 327.274732 116.131864 
L 326.249311 116.323572 
L 326.249311 116.163953 
L 325.7366 116.260071 
L 325.7366 115.939551 
L 324.198469 116.228815 
L 324.198469 116.067758 
L 323.685758 116.164561 
L 323.685758 115.02582 
L 322.660337 115.219016 
L 322.660337 114.226651 
L 321.634916 114.419782 
L 321.634916 114.085443 
L 320.609495 114.279172 
L 320.609495 113.774083 
L 320.096784 113.87104 
L 320.096784 113.361966 
L 319.584074 113.458893 
L 319.584074 112.773894 
L 319.071363 112.870693 
L 319.071363 112.69829 
L 318.045942 112.892422 
L 318.045942 112.37207 
L 316.50781 112.66423 
L 316.50781 112.139095 
L 315.9951 112.236679 
L 315.9951 111.884187 
L 314.969678 112.079697 
L 314.969678 111.010242 
L 313.944257 111.205517 
L 313.944257 110.664 
L 310.867994 111.253953 
L 310.867994 110.889326 
L 309.842573 111.087584 
L 309.842573 110.536428 
L 309.329862 110.635614 
L 309.329862 110.26555 
L 307.79173 110.563995 
L 307.79173 110.377895 
L 307.27902 110.477787 
L 307.27902 110.291082 
L 306.766309 110.391123 
L 306.766309 110.20381 
L 305.740888 110.404456 
L 305.740888 110.027872 
L 303.177335 110.533012 
L 303.177335 110.343378 
L 302.664625 110.445101 
L 302.664625 110.064065 
L 302.151914 110.165822 
L 302.151914 109.782486 
L 300.613783 110.088684 
L 300.613783 107.938512 
L 299.588361 108.141215 
L 299.588361 107.742715 
L 298.56294 107.946 
L 298.56294 107.544735 
L 297.537519 107.748603 
L 297.537519 107.546853 
L 295.486677 107.957468 
L 295.486677 107.551142 
L 294.973966 107.654237 
L 294.973966 107.450071 
L 294.461256 107.553314 
L 294.461256 106.936899 
L 293.435835 107.143395 
L 293.435835 106.936457 
L 292.923124 107.04 
L 292.923124 106.832321 
L 291.897703 107.04 
L 291.897703 106.831424 
L 291.384992 106.935562 
L 291.384992 106.516301 
L 288.82144 107.04 
L 288.82144 106.828688 
L 288.308729 106.93419 
L 288.308729 106.722105 
L 287.796018 106.82776 
L 287.796018 106.614897 
L 287.283308 106.720705 
L 287.283308 106.507059 
L 286.770597 106.613019 
L 286.770597 105.534481 
L 286.257887 105.639941 
L 286.257887 105.422143 
L 285.745176 105.52775 
L 285.745176 105.089865 
L 285.232466 105.195449 
L 285.232466 104.311084 
L 283.694334 104.627655 
L 283.694334 104.404364 
L 283.181623 104.510349 
L 283.181623 104.286201 
L 281.130781 104.712661 
L 281.130781 104.033917 
L 280.61807 104.1408 
L 280.61807 103.455209 
L 280.10536 103.561858 
L 280.10536 102.403994 
L 278.567228 102.723009 
L 278.567228 102.253585 
L 278.054518 102.360189 
L 278.054518 102.124164 
L 277.029096 102.337975 
L 277.029096 101.862857 
L 276.516386 101.969857 
L 276.516386 101.730955 
L 276.003675 101.838086 
L 276.003675 101.598211 
L 275.490965 101.705472 
L 275.490965 101.222986 
L 273.952833 101.545548 
L 273.952833 101.302488 
L 273.440123 101.410485 
L 273.440123 101.166418 
L 272.414701 101.383024 
L 272.414701 101.13772 
L 271.38928 101.355294 
L 271.38928 101.10874 
L 270.363859 101.327291 
L 270.363859 100.83084 
L 269.338438 101.049917 
L 269.338438 100.8 
L 268.825727 100.909851 
L 268.825727 99.900902 
L 267.800306 100.119799 
L 267.800306 99.864966 
L 264.211332 100.641087 
L 264.211332 100.383673 
L 263.185911 100.608328 
L 263.185911 99.305473 
L 261.647779 99.641522 
L 261.647779 98.846609 
L 261.135069 98.958606 
L 261.135069 98.691518 
L 260.622358 98.803636 
L 260.622358 98.535342 
L 260.109648 98.647579 
L 260.109648 98.378067 
L 259.596937 98.490423 
L 259.596937 97.947986 
L 258.571516 98.172766 
L 258.571516 97.35016 
L 257.546095 97.574812 
L 257.546095 97.020323 
L 256.520674 97.245405 
L 256.520674 96.966065 
L 256.007963 97.078915 
L 256.007963 96.233891 
L 254.469832 96.572139 
L 254.469832 96.001761 
L 251.906279 96.570667 
L 251.906279 96.282301 
L 251.393568 96.397026 
L 251.393568 96.107263 
L 250.880858 96.22209 
L 250.880858 95.638652 
L 250.368147 95.753246 
L 250.368147 95.459549 
L 249.855436 95.574237 
L 249.855436 95.279094 
L 249.342726 95.393875 
L 249.342726 95.097273 
L 246.779173 95.676023 
L 246.779173 95.376552 
L 245.753752 95.610462 
L 245.753752 95.309133 
L 245.241041 95.426409 
L 245.241041 95.123559 
L 244.728331 95.24093 
L 244.728331 94.936544 
L 243.190199 95.290312 
L 243.190199 94.98364 
L 241.652067 95.340472 
L 241.652067 95.031479 
L 240.113936 95.391429 
L 240.113936 95.08008 
L 238.575804 95.4432 
L 238.575804 95.129459 
L 237.550383 95.373199 
L 237.550383 94.740364 
L 236.524962 94.984503 
L 236.524962 94.344929 
L 236.012251 94.466939 
L 236.012251 93.821311 
L 234.98683 94.065185 
L 234.98683 93.739546 
L 234.474119 93.861818 
L 234.474119 92.875509 
L 233.448698 93.118998 
L 233.448698 92.45283 
L 231.910567 92.819241 
L 231.910567 92.482706 
L 231.397856 92.605424 
L 231.397856 91.927149 
L 230.885145 92.049467 
L 230.885145 91.707692 
L 229.859724 91.952961 
L 229.859724 91.608774 
L 229.347014 91.731724 
L 229.347014 91.037922 
L 228.321593 91.283478 
L 228.321593 89.873684 
L 227.296172 90.117357 
L 227.296172 89.76 
L 226.27075 90.004789 
L 226.27075 89.6448 
L 225.75804 89.767483 
L 225.75804 89.405357 
L 224.219908 89.775101 
L 224.219908 89.40973 
L 223.707198 89.533544 
L 223.707198 89.165973 
L 222.681776 89.414182 
L 222.681776 88.671781 
L 220.118224 89.296628 
L 220.118224 88.92 
L 219.092802 89.172837 
L 219.092802 88.793287 
L 218.580092 88.92 
L 218.580092 87.768847 
L 217.554671 88.020426 
L 217.554671 87.241425 
L 215.503828 87.746763 
L 215.503828 87.351923 
L 213.452986 87.864466 
L 213.452986 87.465109 
L 212.427565 87.723814 
L 212.427565 87.321176 
L 209.864012 87.975782 
L 209.864012 87.157706 
L 208.325881 87.554171 
L 208.325881 86.723636 
L 207.81317 86.855696 
L 207.81317 86.436548 
L 205.249617 87.103342 
L 205.249617 86.678351 
L 204.224196 86.948394 
L 204.224196 86.519688 
L 202.173354 87.065197 
L 202.173354 86.194828 
L 201.147933 86.468753 
L 201.147933 85.58592 
L 200.635222 85.722353 
L 200.635222 85.276568 
L 200.122511 85.412903 
L 200.122511 84.963881 
L 199.609801 85.100108 
L 199.609801 84.193043 
L 197.558959 84.738462 
L 197.558959 83.348476 
L 193.969985 84.31322 
L 193.969985 83.838187 
L 192.431853 84.260571 
L 192.431853 82.810375 
L 191.406432 83.090087 
L 191.406432 82.59907 
L 189.8683 83.021701 
L 189.8683 82.524706 
L 188.842879 82.808521 
L 188.842879 82.306469 
L 187.817458 82.591522 
L 187.817458 82.084311 
L 185.253905 82.806565 
L 185.253905 82.290732 
L 180.63951 83.637367 
L 180.63951 83.107925 
L 179.614089 83.41519 
L 179.614089 81.799361 
L 179.101378 81.950769 
L 179.101378 81.403987 
L 178.588668 81.555097 
L 178.588668 81.003495 
L 178.075957 81.154286 
L 178.075957 80.597785 
L 177.050536 80.899672 
L 177.050536 80.336842 
L 176.025115 80.64 
L 176.025115 80.070698 
L 173.461562 80.839459 
L 173.461562 80.259254 
L 172.948851 80.414694 
L 172.948851 78.645773 
L 169.872588 79.573895 
L 169.872588 78.355336 
L 168.847167 78.667046 
L 168.847167 78.048 
L 165.770904 79.000292 
L 165.770904 78.366593 
L 164.745482 78.689889 
L 164.745482 78.048 
L 163.207351 78.536629 
L 163.207351 77.884511 
L 159.105666 79.227907 
L 159.105666 78.555642 
L 156.029403 79.607331 
L 156.029403 78.91776 
L 153.46585 79.82302 
L 153.46585 79.117377 
L 152.440429 79.48562 
L 152.440429 78.048 
L 151.927718 78.229958 
L 151.927718 77.499832 
L 146.287902 79.580617 
L 146.287902 78.048 
L 143.211639 79.239452 
L 143.211639 78.446972 
L 142.698928 78.649217 
L 142.698928 77.846667 
L 142.186217 78.048 
L 142.186217 77.23514 
L 141.673507 77.435493 
L 141.673507 74.941714 
L 140.135375 75.526957 
L 140.135375 74.670291 
L 139.109954 75.063529 
L 139.109954 74.191921 
L 138.597243 74.388119 
L 138.597243 72.612 
L 136.546401 73.388571 
L 136.546401 72.472615 
L 136.033691 72.668041 
L 136.033691 71.73886 
L 135.00827 72.128168 
L 135.00827 71.181474 
L 132.444717 72.171243 
L 132.444717 71.193913 
L 131.419296 71.596484 
L 131.419296 68.572961 
L 127.830322 69.957209 
L 127.830322 68.892632 
L 126.29219 69.505714 
L 126.29219 67.306988 
L 123.728637 68.323975 
L 123.728637 67.176 
L 119.114242 69.12 
L 118.088821 69.583893 
L 118.088821 68.351351 
L 114.499847 70.028936 
L 114.499847 68.729143 
L 110.910873 70.527519 
L 110.910873 69.152727 
L 107.321899 71.08992 
L 107.321899 69.630968 
L 106.809188 69.916098 
L 106.809188 68.423607 
L 105.783767 68.988 
L 105.783767 67.450084 
L 102.194793 69.505714 
L 98.605819 71.835429 
L 98.093109 72.193846 
L 98.093109 70.448155 
L 97.580398 70.8 
L 97.580398 69.005941 
L 96.554977 69.701818 
L 96.554977 67.841633 
L 96.042266 68.184742 
L 96.042266 64.314947 
L 93.991424 65.622857 
L 93.991424 61.434607 
L 90.915161 63.377349 
L 88.351608 65.224615 
L 86.813476 66.4512 
L 86.813476 63.943784 
L 85.788055 64.76 
L 85.788055 62.122817 
L 83.224502 64.210909 
L 81.17366 66.123871 
L 80.660949 66.641311 
L 80.660949 63.552 
L 78.610107 65.622857 
L 76.559265 68.012308 
L 75.021133 70.060408 
L 75.021133 66.27 
L 73.483002 68.384 
L 71.94487 70.8 
L 71.432159 71.683902 
L 71.432159 67.176 
L 70.919449 68.012308 
L 70.919449 63.170526 
L 69.381317 65.622857 
L 67.843185 68.535 
L 67.843185 49.555862 
L 66.305054 51.286154 
L 64.766922 53.467826 
L 63.741501 55.268571 
L 62.71608 57.448421 
L 61.690658 60.141176 
L 60.665237 63.552 
L 59.639816 68.012308 
L 58.614395 74.094545 
L 58.101685 78.048 
L 57.588974 82.88 
L 57.076263 88.92 
L 56.563553 96.685714 
L 56.563553 70.8 
L 56.050842 78.048 
L 55.538132 88.92 
L 55.025421 107.04 
L 55.025421 34.56 
L 54 34.56 
L 54 34.56 
" style="fill:none;stroke:#1f77b4;stroke-linecap:square;stroke-width:1.5;"/>
   </g>
   <g id="patch_3">
    <path d="M 54 252 
L 54 34.56 
" style="fill:none;stroke:#000000;stroke-linecap:square;stroke-linejoin:miter;stroke-width:0.8;"/>
   </g>
   <g id="patch_4">
    <path d="M 388.8 252 
L 388.8 34.56 
" style="fill:none;stroke:#000000;stroke-linecap:square;stroke-linejoin:miter;stroke-width:0.8;"/>
   </g>
   <g id="patch_5">
    <path d="M 54 252 
L 388.8 252 
" style="fill:none;stroke:#000000;stroke-linecap:square;stroke-linejoin:miter;stroke-width:0.8;"/>
   </g>
   <g id="patch_6">
    <path d="M 54 34.56 
L 388.8 34.56 
" style="fill:none;stroke:#000000;stroke-linecap:square;stroke-linejoin:miter;stroke-width:0.8;"/>
   </g>
   <g id="text_15">
    <!-- Precision-Recall curve for Leave-one-out XGBoost -->
    <g transform="translate(72.785625 28.56)scale(0.12 -0.12)">
     <defs>
      <path d="M 313 2009 
L 1997 2009 
L 1997 1497 
L 313 1497 
L 313 2009 
z
" id="DejaVuSans-2d" transform="scale(0.015625)"/>
      <path id="DejaVuSans-20" transform="scale(0.015625)"/>
      <path d="M 544 1381 
L 544 3500 
L 1119 3500 
L 1119 1403 
Q 1119 906 1312 657 
Q 1506 409 1894 409 
Q 2359 409 2629 706 
Q 2900 1003 2900 1516 
L 2900 3500 
L 3475 3500 
L 3475 0 
L 2900 0 
L 2900 538 
Q 2691 219 2414 64 
Q 2138 -91 1772 -91 
Q 1169 -91 856 284 
Q 544 659 544 1381 
z
M 1991 3584 
L 1991 3584 
z
" id="DejaVuSans-75" transform="scale(0.015625)"/>
      <path d="M 191 3500 
L 800 3500 
L 1894 563 
L 2988 3500 
L 3597 3500 
L 2284 0 
L 1503 0 
L 191 3500 
z
" id="DejaVuSans-76" transform="scale(0.015625)"/>
      <path d="M 2375 4863 
L 2375 4384 
L 1825 4384 
Q 1516 4384 1395 4259 
Q 1275 4134 1275 3809 
L 1275 3500 
L 2222 3500 
L 2222 3053 
L 1275 3053 
L 1275 0 
L 697 0 
L 697 3053 
L 147 3053 
L 147 3500 
L 697 3500 
L 697 3744 
Q 697 4328 969 4595 
Q 1241 4863 1831 4863 
L 2375 4863 
z
" id="DejaVuSans-66" transform="scale(0.015625)"/>
      <path d="M 628 4666 
L 1259 4666 
L 1259 531 
L 3531 531 
L 3531 0 
L 628 0 
L 628 4666 
z
" id="DejaVuSans-4c" transform="scale(0.015625)"/>
      <path d="M 1172 4494 
L 1172 3500 
L 2356 3500 
L 2356 3053 
L 1172 3053 
L 1172 1153 
Q 1172 725 1289 603 
Q 1406 481 1766 481 
L 2356 481 
L 2356 0 
L 1766 0 
Q 1100 0 847 248 
Q 594 497 594 1153 
L 594 3053 
L 172 3053 
L 172 3500 
L 594 3500 
L 594 4494 
L 1172 4494 
z
" id="DejaVuSans-74" transform="scale(0.015625)"/>
      <path d="M 403 4666 
L 1081 4666 
L 2241 2931 
L 3406 4666 
L 4084 4666 
L 2584 2425 
L 4184 0 
L 3506 0 
L 2194 1984 
L 872 0 
L 191 0 
L 1856 2491 
L 403 4666 
z
" id="DejaVuSans-58" transform="scale(0.015625)"/>
      <path d="M 3809 666 
L 3809 1919 
L 2778 1919 
L 2778 2438 
L 4434 2438 
L 4434 434 
Q 4069 175 3628 42 
Q 3188 -91 2688 -91 
Q 1594 -91 976 548 
Q 359 1188 359 2328 
Q 359 3472 976 4111 
Q 1594 4750 2688 4750 
Q 3144 4750 3555 4637 
Q 3966 4525 4313 4306 
L 4313 3634 
Q 3963 3931 3569 4081 
Q 3175 4231 2741 4231 
Q 1884 4231 1454 3753 
Q 1025 3275 1025 2328 
Q 1025 1384 1454 906 
Q 1884 428 2741 428 
Q 3075 428 3337 486 
Q 3600 544 3809 666 
z
" id="DejaVuSans-47" transform="scale(0.015625)"/>
      <path d="M 1259 2228 
L 1259 519 
L 2272 519 
Q 2781 519 3026 730 
Q 3272 941 3272 1375 
Q 3272 1813 3026 2020 
Q 2781 2228 2272 2228 
L 1259 2228 
z
M 1259 4147 
L 1259 2741 
L 2194 2741 
Q 2656 2741 2882 2914 
Q 3109 3088 3109 3444 
Q 3109 3797 2882 3972 
Q 2656 4147 2194 4147 
L 1259 4147 
z
M 628 4666 
L 2241 4666 
Q 2963 4666 3353 4366 
Q 3744 4066 3744 3513 
Q 3744 3084 3544 2831 
Q 3344 2578 2956 2516 
Q 3422 2416 3680 2098 
Q 3938 1781 3938 1306 
Q 3938 681 3513 340 
Q 3088 0 2303 0 
L 628 0 
L 628 4666 
z
" id="DejaVuSans-42" transform="scale(0.015625)"/>
     </defs>
     <use xlink:href="#DejaVuSans-50"/>
     <use x="58.552734" xlink:href="#DejaVuSans-72"/>
     <use x="97.416016" xlink:href="#DejaVuSans-65"/>
     <use x="158.939453" xlink:href="#DejaVuSans-63"/>
     <use x="213.919922" xlink:href="#DejaVuSans-69"/>
     <use x="241.703125" xlink:href="#DejaVuSans-73"/>
     <use x="293.802734" xlink:href="#DejaVuSans-69"/>
     <use x="321.585938" xlink:href="#DejaVuSans-6f"/>
     <use x="382.767578" xlink:href="#DejaVuSans-6e"/>
     <use x="446.146484" xlink:href="#DejaVuSans-2d"/>
     <use x="482.230469" xlink:href="#DejaVuSans-52"/>
     <use x="547.212891" xlink:href="#DejaVuSans-65"/>
     <use x="608.736328" xlink:href="#DejaVuSans-63"/>
     <use x="663.716797" xlink:href="#DejaVuSans-61"/>
     <use x="724.996094" xlink:href="#DejaVuSans-6c"/>
     <use x="752.779297" xlink:href="#DejaVuSans-6c"/>
     <use x="780.5625" xlink:href="#DejaVuSans-20"/>
     <use x="812.349609" xlink:href="#DejaVuSans-63"/>
     <use x="867.330078" xlink:href="#DejaVuSans-75"/>
     <use x="930.708984" xlink:href="#DejaVuSans-72"/>
     <use x="971.822266" xlink:href="#DejaVuSans-76"/>
     <use x="1031.001953" xlink:href="#DejaVuSans-65"/>
     <use x="1092.525391" xlink:href="#DejaVuSans-20"/>
     <use x="1124.3125" xlink:href="#DejaVuSans-66"/>
     <use x="1159.517578" xlink:href="#DejaVuSans-6f"/>
     <use x="1220.699219" xlink:href="#DejaVuSans-72"/>
     <use x="1261.8125" xlink:href="#DejaVuSans-20"/>
     <use x="1293.599609" xlink:href="#DejaVuSans-4c"/>
     <use x="1347.5625" xlink:href="#DejaVuSans-65"/>
     <use x="1409.085938" xlink:href="#DejaVuSans-61"/>
     <use x="1470.365234" xlink:href="#DejaVuSans-76"/>
     <use x="1529.544922" xlink:href="#DejaVuSans-65"/>
     <use x="1591.068359" xlink:href="#DejaVuSans-2d"/>
     <use x="1629.027344" xlink:href="#DejaVuSans-6f"/>
     <use x="1690.208984" xlink:href="#DejaVuSans-6e"/>
     <use x="1753.587891" xlink:href="#DejaVuSans-65"/>
     <use x="1815.111328" xlink:href="#DejaVuSans-2d"/>
     <use x="1853.070312" xlink:href="#DejaVuSans-6f"/>
     <use x="1914.251953" xlink:href="#DejaVuSans-75"/>
     <use x="1977.630859" xlink:href="#DejaVuSans-74"/>
     <use x="2016.839844" xlink:href="#DejaVuSans-20"/>
     <use x="2048.626953" xlink:href="#DejaVuSans-58"/>
     <use x="2117.132812" xlink:href="#DejaVuSans-47"/>
     <use x="2194.623047" xlink:href="#DejaVuSans-42"/>
     <use x="2263.226562" xlink:href="#DejaVuSans-6f"/>
     <use x="2324.408203" xlink:href="#DejaVuSans-6f"/>
     <use x="2385.589844" xlink:href="#DejaVuSans-73"/>
     <use x="2437.689453" xlink:href="#DejaVuSans-74"/>
    </g>
   </g>
  </g>
 </g>
 <defs>
  <clipPath id="pbc866006a1">
   <rect height="217.44" width="334.8" x="54" y="34.56"/>
  </clipPath>
 </defs>
</svg>
